<svg width="1920" height="1077" fill="none" xmlns="http://www.w3.org/2000/svg"><g style="mix-blend-mode:screen" opacity=".06" clip-path="url(#clip0_117_20278)"><path d="M1968 918.858V153.579c-135.97 41.411-236.49 198.901-234.54 385.737 1.63 183.902 101.17 337.153 234.54 379.542z" fill="url(#paint0_radial_117_20278)"/><path d="M1863.91 180.969h103.11v-1.63h-102.46L1720.78 35.217l-.98 1.305 144.11 144.447z" fill="#969696"/><path d="M1720.45 42.39c3.41 0 6.18-2.773 6.18-6.195 0-3.421-2.77-6.195-6.18-6.195-3.41 0-6.18 2.774-6.18 6.195 0 3.422 2.77 6.196 6.18 6.196zm-85.23 1029.39l92.06-92.273h183.79l55.95-56.41v-2.283l-56.6 57.062h-183.79l-92.06 92.274h-166.22v1.63h166.87z" fill="#969696"/><path d="M1468.67 1064.61c-3.25 0-6.18 2.61-6.18 6.2 0 3.26 2.61 6.19 6.18 6.19 3.26 0 6.18-2.61 6.18-6.19 0-3.27-2.92-6.2-6.18-6.2zm383.2-781.256l46.52-46.628h68.63v-1.63h-69.28l-46.52 46.627h-351.64v1.631h352.29z" fill="#969696"/><path d="M1499.9 288.571c3.42 0 6.18-2.774 6.18-6.195 0-3.422-2.76-6.196-6.18-6.196-3.41 0-6.18 2.774-6.18 6.196 0 3.421 2.77 6.195 6.18 6.195zm362.05 420.626l70.59 70.756h34.48v-1.63h-33.83l-70.59-70.756h-212.09v1.63h211.44z" fill="#969696"/><path d="M1650.84 702.349c-3.25 0-6.18 2.609-6.18 6.196 0 3.26 2.6 6.195 6.18 6.195 3.25 0 6.18-2.609 6.18-6.195 0-3.587-2.6-6.196-6.18-6.196zm211.76-361.934l67.34-67.822h37.08v-1.63h-37.73l-67.34 67.822h-264.78v1.63h265.43z" fill="#969696"/><path d="M1597.49 345.632c-3.25 0-6.18-2.608-6.18-6.195 0-3.261 2.6-6.195 6.18-6.195 3.25 0 6.18 2.608 6.18 6.195s-2.6 6.195-6.18 6.195zm20.82 356.065l69.29-69.126h279.42v-1.63h-280.07l-69.62 69.778.98.978z" fill="#969696"/><path d="M1613.76 696.48c-2.28 2.283-2.28 6.195 0 8.804 2.27 2.282 6.18 2.282 8.78 0 2.28-2.283 2.28-6.195 0-8.804-2.6-2.282-6.51-2.282-8.78 0zm-78.08-299.655h298.62l71.89-72.387h60.83v-1.63h-61.48l-71.89 72.387h-297.31l-87.83-88.038-1.31.978 88.48 88.69z" fill="#969696"/><path d="M1452.41 303.57c-2.28-2.282-6.18-2.282-8.78 0-2.28 2.282-2.28 6.195 0 8.804 2.27 2.282 6.18 2.282 8.78 0 2.28-2.609 2.28-6.522 0-8.804zm349.69 160.751l109.3-109.558h55.62v-1.631h-56.27L1800.8 463.343l1.3.978z" fill="#969696"/><path d="M1797.55 459.43c-2.28 2.283-2.28 6.195 0 8.804 2.27 2.282 6.18 2.282 8.78 0 2.28-2.283 2.28-6.195 0-8.804-2.6-2.609-6.51-2.609-8.78 0zm145.4 111.189l24.07 24.455v-2.283l-23.42-23.803h-422.55v1.631h421.9z" fill="#969696"/><path d="M1521.37 563.771c-3.25 0-6.18 2.609-6.18 6.195 0 3.587 2.6 6.195 6.18 6.195 3.25 0 6.18-2.608 6.18-6.195 0-3.586-2.6-6.195-6.18-6.195zm445.65-156.186h-57.9v1.63h57.9v-1.63z" fill="#969696"/><path d="M1909.45 402.368c-3.26 0-6.18 2.608-6.18 6.195 0 3.261 2.6 6.196 6.18 6.196 3.25 0 6.18-2.609 6.18-6.196 0-3.26-2.93-6.195-6.18-6.195zm57.57 37.171h-73.84v1.631h73.84v-1.631z" fill="#969696"/><path d="M1893.51 446.387c3.41 0 6.18-2.774 6.18-6.195 0-3.422-2.77-6.196-6.18-6.196-3.42 0-6.18 2.774-6.18 6.196 0 3.421 2.76 6.195 6.18 6.195zm-296.67 281.395h-70.26v1.631h70.26v-1.631z" fill="#969696"/><path d="M1596.51 722.24c3.26 0 6.19 2.608 6.19 6.195 0 3.26-2.61 6.195-6.19 6.195-3.25 0-6.18-2.609-6.18-6.195 0-3.261 2.61-6.195 6.18-6.195zm-69.61 0c-3.25 0-6.18 2.608-6.18 6.195 0 3.26 2.6 6.195 6.18 6.195 3.25 0 6.18-2.609 6.18-6.195-.32-3.261-2.93-6.195-6.18-6.195zm412.15-55.106l27.97 28.042v-2.283l-27.32-27.389h-228.36v1.63h227.71z" fill="#969696"/><path d="M1711.67 672.351c3.41 0 6.18-2.773 6.18-6.195s-2.77-6.195-6.18-6.195c-3.41 0-6.18 2.773-6.18 6.195s2.77 6.195 6.18 6.195zm-75.79 357.699l117.75-118.04h134.67l76.77-76.625h1.95v-1.631h-2.6l-76.77 76.626h-134.67l-117.76 118.04h-153.53v1.63h154.19z" fill="#969696"/><path d="M1481.69 1022.87c-3.26 0-6.18 2.61-6.18 6.2 0 3.26 2.6 6.19 6.18 6.19 3.57 0 6.18-2.6 6.18-6.19 0-3.26-2.61-6.2-6.18-6.2zm-6.51-173.465l90.76-90.972h271.62l52.69 52.823h76.77v-1.631h-76.11l-52.7-52.823h-272.92l-91.41 91.625 1.3.978z" fill="#969696"/><path d="M1470.3 844.188c-2.28 2.282-2.28 6.195 0 8.804 2.28 2.282 6.18 2.282 8.78 0 2.28-2.283 2.28-6.196 0-8.804-2.27-2.283-6.18-2.283-8.78 0zm250.8 7.826h155.82v1.63h-155.17l-94.98 95.538h-127.52l-45.21-44.997 1.3-1.305 44.56 44.671h126.22l94.98-95.537z" fill="#969696"/><path d="M1876.59 859.187c3.42 0 6.18-2.773 6.18-6.195 0-3.421-2.76-6.195-6.18-6.195-3.41 0-6.18 2.774-6.18 6.195 0 3.422 2.77 6.195 6.18 6.195zm-417.35 40.107c-2.28-2.282-6.18-2.282-8.78 0-2.28 2.283-2.28 6.195 0 8.804 2.27 2.282 6.18 2.282 8.78 0 2.28-2.609 2.28-6.195 0-8.804zm203.63-86.734h161.02v1.63h-160.04l-72.87 72.713h-64.4v-1.63h63.75l72.54-72.713z" fill="#969696"/><path d="M1823.57 807.017c3.25 0 6.18 2.609 6.18 6.195 0 3.261-2.6 6.196-6.18 6.196-3.58 0-6.18-2.609-6.18-6.196.32-3.26 2.93-6.195 6.18-6.195zm-296.67 73.039c-3.25 0-6.18 2.609-6.18 6.196 0 3.26 2.6 6.195 6.18 6.195 3.25 0 6.18-2.609 6.18-6.195-.32-3.587-2.93-6.196-6.18-6.196zm48.8-269.005h309.02v1.631h-308.37l-117.11 117.71-.98-1.305 117.44-118.036z" fill="#969696"/><path d="M1884.4 605.834c3.25 0 6.18 2.608 6.18 6.195 0 3.261-2.6 6.195-6.18 6.195-3.25 0-6.18-2.608-6.18-6.195.32-3.587 2.93-6.195 6.18-6.195zm-429.71 119.34c-2.28 2.283-2.28 6.195 0 8.804 2.27 2.282 6.18 2.282 8.78 0 2.28-2.282 2.28-6.195 0-8.804-2.6-2.608-6.51-2.608-8.78 0zm489.24-192.705l23.09 23.477v-2.283l-22.44-22.824H1494.7v1.63h449.23z" fill="#969696"/><path d="M1495.02 538.012c3.42 0 6.18-2.774 6.18-6.195 0-3.422-2.76-6.196-6.18-6.196-3.41 0-6.18 2.774-6.18 6.196 0 3.421 2.77 6.195 6.18 6.195zm445.66-44.672l26.34 26.412v-2.609l-25.37-25.433h-470.7v1.63h469.73z" fill="#969696"/><path d="M1471.28 498.558c3.41 0 6.18-2.774 6.18-6.196 0-3.421-2.77-6.195-6.18-6.195-3.42 0-6.18 2.774-6.18 6.195 0 3.422 2.76 6.196 6.18 6.196zm352.94-283.026h142.8v-1.631h-142.15l-126.54-126.84-.97.979 126.86 127.492z" fill="#969696"/><path d="M1698.01 93.91c3.41 0 6.18-2.775 6.18-6.196 0-3.422-2.77-6.195-6.18-6.195-3.42 0-6.18 2.773-6.18 6.195 0 3.421 2.76 6.195 6.18 6.195zm-236.82 39.779h225.76l81.97 82.169-1.3.978-81.32-81.516h-225.11v-1.631z" fill="#969696"/><path d="M1772.5 211.946c2.28 2.282 2.28 6.195 0 8.803-2.28 2.283-6.18 2.283-8.78 0-2.28-2.282-2.28-6.195 0-8.803 2.27-2.609 6.18-2.609 8.78 0zm-311.31-71.409c3.42 0 6.18-2.774 6.18-6.195 0-3.422-2.76-6.196-6.18-6.196-3.41 0-6.18 2.774-6.18 6.196 0 3.421 2.77 6.195 6.18 6.195z" fill="#969696"/></g><g style="mix-blend-mode:screen" opacity=".06" clip-path="url(#clip1_117_20278)"><path d="M-48 918.858V153.579C87.973 194.99 188.49 352.48 186.537 539.316 184.91 723.218 85.371 876.469-48 918.858z" fill="url(#paint1_radial_117_20278)"/><path d="M56.094 180.969H-47.024v-1.63H55.444L199.222 35.217l.976 1.305L56.094 180.969z" fill="#969696"/><path d="M199.549 42.39c-3.414 0-6.181-2.773-6.181-6.195 0-3.421 2.767-6.195 6.181-6.195 3.413 0 6.18 2.774 6.18 6.195 0 3.422-2.767 6.196-6.18 6.196zm85.227 1029.39l-92.059-92.273H8.927l-55.951-56.41v-2.283l56.601 57.062h183.791l92.058 92.274h166.225v1.63H284.776z" fill="#969696"/><path d="M451.326 1064.61c3.253 0 6.181 2.61 6.181 6.2 0 3.26-2.603 6.19-6.181 6.19-3.253 0-6.181-2.61-6.181-6.19 0-3.27 2.928-6.2 6.181-6.2zM68.13 283.354l-46.517-46.628h-68.637v-1.63h69.287l46.517 46.627h351.643v1.631H68.13z" fill="#969696"/><path d="M420.098 288.571c-3.414 0-6.181-2.774-6.181-6.195 0-3.422 2.767-6.196 6.181-6.196 3.413 0 6.18 2.774 6.18 6.196 0 3.421-2.767 6.195-6.18 6.195zM58.046 709.197l-70.589 70.756h-34.481v-1.63h33.83l70.59-70.756h212.091v1.63H58.046z" fill="#969696"/><path d="M269.161 702.349c3.253 0 6.181 2.609 6.181 6.196 0 3.26-2.602 6.195-6.181 6.195-3.253 0-6.18-2.609-6.18-6.195 0-3.587 2.602-6.196 6.18-6.196zM57.395 340.415L-9.94 272.593h-37.083v-1.63H-9.29l67.336 67.822h264.789v1.63H57.395z" fill="#969696"/><path d="M322.51 345.632c3.253 0 6.18-2.608 6.18-6.195 0-3.261-2.602-6.195-6.18-6.195-3.253 0-6.181 2.608-6.181 6.195s2.602 6.195 6.181 6.195zm-20.819 356.065l-69.288-69.126H-47.024v-1.63h280.078l69.613 69.778-.976.978z" fill="#969696"/><path d="M306.245 696.48c2.277 2.283 2.277 6.195 0 8.804-2.277 2.282-6.181 2.282-8.783 0-2.277-2.283-2.277-6.195 0-8.804 2.602-2.282 6.506-2.282 8.783 0zm78.07-299.655H85.695l-71.89-72.387h-60.829v-1.63h61.48l71.89 72.387h297.319l87.829-88.038 1.301.978-88.48 88.69z" fill="#969696"/><path d="M467.591 303.57c2.277-2.282 6.18-2.282 8.783 0 2.277 2.282 2.277 6.195 0 8.804-2.277 2.282-6.181 2.282-8.783 0-2.277-2.609-2.277-6.522 0-8.804zM117.9 464.321L8.601 354.763h-55.625v-1.631H9.252L119.2 463.343l-1.301.978z" fill="#969696"/><path d="M122.454 459.43c2.277 2.283 2.277 6.195 0 8.804-2.277 2.282-6.181 2.282-8.783 0-2.277-2.283-2.277-6.195 0-8.804 2.602-2.609 6.506-2.609 8.783 0zM-22.952 570.619l-24.072 24.455v-2.283l23.421-23.803h422.557v1.631H-22.952z" fill="#969696"/><path d="M398.628 563.771c3.253 0 6.181 2.609 6.181 6.195 0 3.587-2.602 6.195-6.181 6.195-3.253 0-6.18-2.608-6.18-6.195 0-3.586 2.602-6.195 6.18-6.195zM-47.024 407.585h57.902v1.63h-57.902v-1.63z" fill="#969696"/><path d="M10.553 402.368c3.253 0 6.18 2.608 6.18 6.195 0 3.261-2.602 6.196-6.18 6.196-3.253 0-6.18-2.609-6.18-6.196 0-3.26 2.927-6.195 6.18-6.195zm-57.577 37.171h73.842v1.631h-73.842v-1.631z" fill="#969696"/><path d="M26.492 446.387c-3.413 0-6.18-2.774-6.18-6.195 0-3.422 2.767-6.196 6.18-6.196 3.414 0 6.181 2.774 6.181 6.196 0 3.421-2.767 6.195-6.18 6.195zM323.16 727.782h70.264v1.631H323.16v-1.631z" fill="#969696"/><path d="M323.486 722.24c-3.253 0-6.181 2.608-6.181 6.195 0 3.26 2.602 6.195 6.181 6.195 3.252 0 6.18-2.609 6.18-6.195 0-3.261-2.602-6.195-6.18-6.195zm69.612 0c3.253 0 6.181 2.608 6.181 6.195 0 3.26-2.602 6.195-6.181 6.195-3.252 0-6.18-2.609-6.18-6.195.325-3.261 2.928-6.195 6.18-6.195zm-412.147-55.106l-27.975 28.042v-2.283l27.325-27.389h228.356v1.63H-19.049z" fill="#969696"/><path d="M208.331 672.351c-3.413 0-6.18-2.773-6.18-6.195s2.767-6.195 6.18-6.195c3.414 0 6.181 2.773 6.181 6.195s-2.767 6.195-6.181 6.195zm75.794 357.699L166.369 912.01H31.697l-76.77-76.625h-1.951v-1.631h2.602l76.77 76.626h134.671l117.757 118.04h153.538v1.63H284.125z" fill="#969696"/><path d="M438.314 1022.87c3.253 0 6.181 2.61 6.181 6.2 0 3.26-2.603 6.19-6.181 6.19s-6.18-2.6-6.18-6.19c0-3.26 2.602-6.2 6.18-6.2zm6.506-173.465l-90.757-90.972H82.443l-52.698 52.823h-76.77v-1.631h76.12l52.697-52.823h272.922l91.407 91.625-1.301.978z" fill="#969696"/><path d="M449.699 844.188c2.278 2.282 2.278 6.195 0 8.804-2.277 2.282-6.18 2.282-8.782 0-2.278-2.283-2.278-6.196 0-8.804 2.277-2.283 6.18-2.283 8.782 0zm-250.801 7.826H43.082v1.63h155.165l94.986 95.538h127.515l45.216-44.997-1.301-1.305-44.565 44.671H293.884l-94.986-95.537z" fill="#969696"/><path d="M43.408 859.187c-3.414 0-6.181-2.773-6.181-6.195 0-3.421 2.767-6.195 6.18-6.195 3.414 0 6.181 2.774 6.181 6.195 0 3.422-2.767 6.195-6.18 6.195zm417.352 40.107c2.277-2.282 6.18-2.282 8.782 0 2.278 2.283 2.278 6.195 0 8.804-2.277 2.282-6.18 2.282-8.782 0-2.277-2.609-2.277-6.195 0-8.804zM257.126 812.56H96.106v1.63H256.15l72.866 72.713h64.408v-1.63h-63.758l-72.54-72.713z" fill="#969696"/><path d="M96.43 807.017c-3.252 0-6.18 2.609-6.18 6.195 0 3.261 2.602 6.196 6.18 6.196 3.579 0 6.181-2.609 6.181-6.196-.325-3.26-2.928-6.195-6.18-6.195zm296.668 73.039c3.253 0 6.181 2.609 6.181 6.196 0 3.26-2.602 6.195-6.181 6.195-3.252 0-6.18-2.609-6.18-6.195.325-3.587 2.928-6.196 6.18-6.196zm-48.794-269.005H35.275v1.631h308.379l117.105 117.71.976-1.305-117.431-118.036z" fill="#969696"/><path d="M35.6 605.834c-3.252 0-6.18 2.608-6.18 6.195 0 3.261 2.602 6.195 6.18 6.195 3.254 0 6.181-2.608 6.181-6.195-.325-3.587-2.927-6.195-6.18-6.195zm429.714 119.34c2.277 2.283 2.277 6.195 0 8.804-2.278 2.282-6.181 2.282-8.783 0-2.277-2.282-2.277-6.195 0-8.804 2.602-2.608 6.505-2.608 8.783 0zM-23.928 532.469l-23.096 23.477v-2.283l22.445-22.824h449.882v1.63H-23.928z" fill="#969696"/><path d="M424.977 538.012c-3.413 0-6.18-2.774-6.18-6.195 0-3.422 2.767-6.196 6.18-6.196 3.414 0 6.181 2.774 6.181 6.196 0 3.421-2.767 6.195-6.181 6.195zM-20.675 493.34l-26.35 26.412v-2.609l25.374-25.433h470.7v1.63H-20.675z" fill="#969696"/><path d="M448.724 498.558c-3.414 0-6.181-2.774-6.181-6.196 0-3.421 2.767-6.195 6.181-6.195 3.413 0 6.18 2.774 6.18 6.195 0 3.422-2.767 6.196-6.18 6.196zM95.78 215.532H-47.024v-1.631H95.129l126.54-126.84.975.979L95.78 215.532z" fill="#969696"/><path d="M221.994 93.91c-3.414 0-6.181-2.775-6.181-6.196 0-3.422 2.767-6.195 6.181-6.195 3.413 0 6.18 2.773 6.18 6.195 0 3.421-2.767 6.195-6.18 6.195zm236.814 39.779H233.054l-81.974 82.169 1.301.978 81.323-81.516h225.104v-1.631z" fill="#969696"/><path d="M147.502 211.946c-2.278 2.282-2.278 6.195 0 8.803 2.277 2.283 6.18 2.283 8.782 0 2.278-2.282 2.278-6.195 0-8.803-2.277-2.609-6.18-2.609-8.782 0zm311.306-71.409c-3.414 0-6.181-2.774-6.181-6.195 0-3.422 2.767-6.196 6.181-6.196 3.413 0 6.18 2.774 6.18 6.196 0 3.421-2.767 6.195-6.18 6.195z" fill="#969696"/></g><g opacity=".8"><g opacity=".86" filter="url(#filter0_d_117_20278)"><circle cx="92.145" cy="94.218" r="5.9" transform="rotate(131 92.145 94.218)" fill="url(#paint2_linear_117_20278)"/></g><g opacity=".79" filter="url(#filter1_d_117_20278)"><circle cx="474.5" cy="86.217" r="4.2" transform="rotate(25 474.5 86.217)" fill="url(#paint3_linear_117_20278)"/></g><g opacity=".77" filter="url(#filter2_d_117_20278)"><circle cx="1095.07" cy="7.394" r="4.45" transform="rotate(166 1095.07 7.394)" fill="url(#paint4_linear_117_20278)"/></g><g opacity=".73" filter="url(#filter3_d_117_20278)"><circle cx="1380.49" cy="11.408" r="3.25" transform="rotate(-74 1380.49 11.408)" fill="url(#paint5_linear_117_20278)"/></g><g opacity=".94" filter="url(#filter4_d_117_20278)"><circle cx="1715.03" cy="23.393" r="4.6" transform="rotate(88 1715.03 23.393)" fill="url(#paint6_linear_117_20278)"/></g><g opacity=".81" filter="url(#filter5_d_117_20278)"><circle cx="247.947" cy="214.602" r="3.25" transform="rotate(-58 247.947 214.602)" fill="url(#paint7_linear_117_20278)"/></g><g opacity=".84" filter="url(#filter6_d_117_20278)"><circle cx="576.126" cy="257.473" r="4.95" transform="rotate(-63 576.126 257.473)" fill="url(#paint8_linear_117_20278)"/></g><g opacity=".76" filter="url(#filter7_d_117_20278)"><circle cx="1250.29" cy="397.877" r="4.4" transform="rotate(142 1250.29 397.877)" fill="url(#paint9_linear_117_20278)"/></g><g opacity=".9" filter="url(#filter8_d_117_20278)"><circle cx="1168.23" cy="265.444" r="3.75" transform="rotate(172 1168.23 265.444)" fill="url(#paint10_linear_117_20278)"/></g><g opacity=".86" filter="url(#filter9_d_117_20278)"><circle cx="1886.52" cy="213.128" r="5.35" transform="rotate(37 1886.52 213.128)" fill="url(#paint11_linear_117_20278)"/></g><g opacity=".73" filter="url(#filter10_d_117_20278)"><circle cx="86.507" cy="465.213" r="3.65" transform="rotate(151 86.507 465.213)" fill="url(#paint12_linear_117_20278)"/></g><g opacity=".84" filter="url(#filter11_d_117_20278)"><circle cx="525.052" cy="619.579" r="5.95" transform="rotate(-102 525.052 619.579)" fill="url(#paint13_linear_117_20278)"/></g><g opacity=".81" filter="url(#filter12_d_117_20278)"><circle cx="860.286" cy="471.579" r="5.45" transform="rotate(-86 860.286 471.579)" fill="url(#paint14_linear_117_20278)"/></g><g opacity=".97" filter="url(#filter13_d_117_20278)"><circle cx="1372.33" cy="550.958" r="4.35" transform="rotate(132 1372.33 550.958)" fill="url(#paint15_linear_117_20278)"/></g><g opacity=".99" filter="url(#filter14_d_117_20278)"><circle cx="1829.87" cy="548.928" r="4.45" transform="rotate(92 1829.87 548.928)" fill="url(#paint16_linear_117_20278)"/></g><g opacity=".83" filter="url(#filter15_d_117_20278)"><circle cx="117.132" cy="634.21" r="4.55" transform="rotate(-138 117.132 634.21)" fill="url(#paint17_linear_117_20278)"/></g><g opacity=".84" filter="url(#filter16_d_117_20278)"><circle cx="427.798" cy="705.401" r="5.25" transform="rotate(-148 427.798 705.401)" fill="url(#paint18_linear_117_20278)"/></g><g opacity=".93" filter="url(#filter17_d_117_20278)"><circle cx="1117.77" cy="732.596" r="5.65" transform="rotate(50 1117.77 732.596)" fill="url(#paint19_linear_117_20278)"/></g><g opacity=".97" filter="url(#filter18_d_117_20278)"><circle cx="1437.38" cy="715.952" r="3.4" transform="rotate(-175 1437.38 715.952)" fill="url(#paint20_linear_117_20278)"/></g><g opacity=".79" filter="url(#filter19_d_117_20278)"><circle cx="1690.25" cy="741.169" r="5.1" transform="rotate(-65 1690.25 741.169)" fill="url(#paint21_linear_117_20278)"/></g><g opacity=".72" filter="url(#filter20_d_117_20278)"><circle cx="31.032" cy="982.667" r="4.6" transform="rotate(67 31.032 982.667)" fill="url(#paint22_linear_117_20278)"/></g><g opacity=".82" filter="url(#filter21_d_117_20278)"><circle cx="536.214" cy="1063.37" r="5" transform="rotate(93 536.214 1063.37)" fill="url(#paint23_linear_117_20278)"/></g><g opacity=".94" filter="url(#filter22_d_117_20278)"><circle cx="855.651" cy="1039.06" r="5.8" transform="rotate(-49 855.651 1039.06)" fill="url(#paint24_linear_117_20278)"/></g><g opacity=".97" filter="url(#filter23_d_117_20278)"><circle cx="1200.55" cy="950.231" r="3.25" transform="rotate(44 1200.55 950.231)" fill="url(#paint25_linear_117_20278)"/></g><g opacity=".81" filter="url(#filter24_d_117_20278)"><circle cx="1741.33" cy="1045.05" r="4.9" transform="rotate(-153 1741.33 1045.05)" fill="url(#paint26_linear_117_20278)"/></g></g><defs><linearGradient id="paint2_linear_117_20278" x1="92.145" y1="88.318" x2="92.145" y2="100.118" gradientUnits="userSpaceOnUse"><stop stop-color="#00D8A4"/><stop offset="1" stop-color="#009470"/></linearGradient><linearGradient id="paint3_linear_117_20278" x1="474.5" y1="82.017" x2="474.5" y2="90.417" gradientUnits="userSpaceOnUse"><stop stop-color="#00D8A4"/><stop offset="1" stop-color="#009470"/></linearGradient><linearGradient id="paint4_linear_117_20278" x1="1095.07" y1="2.944" x2="1095.07" y2="11.845" gradientUnits="userSpaceOnUse"><stop stop-color="#00D8A4"/><stop offset="1" stop-color="#009470"/></linearGradient><linearGradient id="paint5_linear_117_20278" x1="1380.49" y1="8.157" x2="1380.49" y2="14.658" gradientUnits="userSpaceOnUse"><stop stop-color="#00D8A4"/><stop offset="1" stop-color="#009470"/></linearGradient><linearGradient id="paint6_linear_117_20278" x1="1715.03" y1="18.794" x2="1715.03" y2="27.994" gradientUnits="userSpaceOnUse"><stop stop-color="#00D8A4"/><stop offset="1" stop-color="#009470"/></linearGradient><linearGradient id="paint7_linear_117_20278" x1="247.947" y1="211.352" x2="247.947" y2="217.852" gradientUnits="userSpaceOnUse"><stop stop-color="#00D8A4"/><stop offset="1" stop-color="#009470"/></linearGradient><linearGradient id="paint8_linear_117_20278" x1="576.126" y1="252.523" x2="576.126" y2="262.423" gradientUnits="userSpaceOnUse"><stop stop-color="#00D8A4"/><stop offset="1" stop-color="#009470"/></linearGradient><linearGradient id="paint9_linear_117_20278" x1="1250.29" y1="393.477" x2="1250.29" y2="402.277" gradientUnits="userSpaceOnUse"><stop stop-color="#00D8A4"/><stop offset="1" stop-color="#009470"/></linearGradient><linearGradient id="paint10_linear_117_20278" x1="1168.23" y1="261.694" x2="1168.23" y2="269.194" gradientUnits="userSpaceOnUse"><stop stop-color="#00D8A4"/><stop offset="1" stop-color="#009470"/></linearGradient><linearGradient id="paint11_linear_117_20278" x1="1886.52" y1="207.778" x2="1886.52" y2="218.478" gradientUnits="userSpaceOnUse"><stop stop-color="#00D8A4"/><stop offset="1" stop-color="#009470"/></linearGradient><linearGradient id="paint12_linear_117_20278" x1="86.507" y1="461.563" x2="86.507" y2="468.863" gradientUnits="userSpaceOnUse"><stop stop-color="#00D8A4"/><stop offset="1" stop-color="#009470"/></linearGradient><linearGradient id="paint13_linear_117_20278" x1="525.052" y1="613.629" x2="525.052" y2="625.529" gradientUnits="userSpaceOnUse"><stop stop-color="#00D8A4"/><stop offset="1" stop-color="#009470"/></linearGradient><linearGradient id="paint14_linear_117_20278" x1="860.286" y1="466.129" x2="860.286" y2="477.029" gradientUnits="userSpaceOnUse"><stop stop-color="#00D8A4"/><stop offset="1" stop-color="#009470"/></linearGradient><linearGradient id="paint15_linear_117_20278" x1="1372.33" y1="546.608" x2="1372.33" y2="555.308" gradientUnits="userSpaceOnUse"><stop stop-color="#00D8A4"/><stop offset="1" stop-color="#009470"/></linearGradient><linearGradient id="paint16_linear_117_20278" x1="1829.87" y1="544.478" x2="1829.87" y2="553.378" gradientUnits="userSpaceOnUse"><stop stop-color="#00D8A4"/><stop offset="1" stop-color="#009470"/></linearGradient><linearGradient id="paint17_linear_117_20278" x1="117.132" y1="629.66" x2="117.132" y2="638.76" gradientUnits="userSpaceOnUse"><stop stop-color="#00D8A4"/><stop offset="1" stop-color="#009470"/></linearGradient><linearGradient id="paint18_linear_117_20278" x1="427.798" y1="700.151" x2="427.798" y2="710.651" gradientUnits="userSpaceOnUse"><stop stop-color="#00D8A4"/><stop offset="1" stop-color="#009470"/></linearGradient><linearGradient id="paint19_linear_117_20278" x1="1117.77" y1="726.946" x2="1117.77" y2="738.246" gradientUnits="userSpaceOnUse"><stop stop-color="#00D8A4"/><stop offset="1" stop-color="#009470"/></linearGradient><linearGradient id="paint20_linear_117_20278" x1="1437.38" y1="712.552" x2="1437.38" y2="719.352" gradientUnits="userSpaceOnUse"><stop stop-color="#00D8A4"/><stop offset="1" stop-color="#009470"/></linearGradient><linearGradient id="paint21_linear_117_20278" x1="1690.25" y1="736.069" x2="1690.25" y2="746.269" gradientUnits="userSpaceOnUse"><stop stop-color="#00D8A4"/><stop offset="1" stop-color="#009470"/></linearGradient><linearGradient id="paint22_linear_117_20278" x1="31.032" y1="978.067" x2="31.032" y2="987.267" gradientUnits="userSpaceOnUse"><stop stop-color="#00D8A4"/><stop offset="1" stop-color="#009470"/></linearGradient><linearGradient id="paint23_linear_117_20278" x1="536.214" y1="1058.37" x2="536.214" y2="1068.37" gradientUnits="userSpaceOnUse"><stop stop-color="#00D8A4"/><stop offset="1" stop-color="#009470"/></linearGradient><linearGradient id="paint24_linear_117_20278" x1="855.651" y1="1033.26" x2="855.651" y2="1044.86" gradientUnits="userSpaceOnUse"><stop stop-color="#00D8A4"/><stop offset="1" stop-color="#009470"/></linearGradient><linearGradient id="paint25_linear_117_20278" x1="1200.55" y1="946.981" x2="1200.55" y2="953.481" gradientUnits="userSpaceOnUse"><stop stop-color="#00D8A4"/><stop offset="1" stop-color="#009470"/></linearGradient><linearGradient id="paint26_linear_117_20278" x1="1741.33" y1="1040.15" x2="1741.33" y2="1049.95" gradientUnits="userSpaceOnUse"><stop stop-color="#00D8A4"/><stop offset="1" stop-color="#009470"/></linearGradient><filter id="filter0_d_117_20278" x="82.245" y="86.318" width="19.8" height="19.8" filterUnits="userSpaceOnUse" color-interpolation-filters="sRGB"><feFlood flood-opacity="0" result="BackgroundImageFix"/><feColorMatrix in="SourceAlpha" values="0 0 0 0 0 0 0 0 0 0 0 0 0 0 0 0 0 0 127 0" result="hardAlpha"/><feOffset dy="2"/><feGaussianBlur stdDeviation="2"/><feComposite in2="hardAlpha" operator="out"/><feColorMatrix values="0 0 0 0 0 0 0 0 0 0.744333 0 0 0 0 0.845833 0 0 0 0.2 0"/><feBlend in2="BackgroundImageFix" result="effect1_dropShadow_117_20278"/><feBlend in="SourceGraphic" in2="effect1_dropShadow_117_20278" result="shape"/></filter><filter id="filter1_d_117_20278" x="466.299" y="80.016" width="16.402" height="16.402" filterUnits="userSpaceOnUse" color-interpolation-filters="sRGB"><feFlood flood-opacity="0" result="BackgroundImageFix"/><feColorMatrix in="SourceAlpha" values="0 0 0 0 0 0 0 0 0 0 0 0 0 0 0 0 0 0 127 0" result="hardAlpha"/><feOffset dy="2"/><feGaussianBlur stdDeviation="2"/><feComposite in2="hardAlpha" operator="out"/><feColorMatrix values="0 0 0 0 0 0 0 0 0 0.744333 0 0 0 0 0.845833 0 0 0 0.2 0"/><feBlend in2="BackgroundImageFix" result="effect1_dropShadow_117_20278"/><feBlend in="SourceGraphic" in2="effect1_dropShadow_117_20278" result="shape"/></filter><filter id="filter2_d_117_20278" x="1086.62" y=".943" width="16.902" height="16.902" filterUnits="userSpaceOnUse" color-interpolation-filters="sRGB"><feFlood flood-opacity="0" result="BackgroundImageFix"/><feColorMatrix in="SourceAlpha" values="0 0 0 0 0 0 0 0 0 0 0 0 0 0 0 0 0 0 127 0" result="hardAlpha"/><feOffset dy="2"/><feGaussianBlur stdDeviation="2"/><feComposite in2="hardAlpha" operator="out"/><feColorMatrix values="0 0 0 0 0 0 0 0 0 0.744333 0 0 0 0 0.845833 0 0 0 0.2 0"/><feBlend in2="BackgroundImageFix" result="effect1_dropShadow_117_20278"/><feBlend in="SourceGraphic" in2="effect1_dropShadow_117_20278" result="shape"/></filter><filter id="filter3_d_117_20278" x="1373.24" y="6.157" width="14.502" height="14.502" filterUnits="userSpaceOnUse" color-interpolation-filters="sRGB"><feFlood flood-opacity="0" result="BackgroundImageFix"/><feColorMatrix in="SourceAlpha" values="0 0 0 0 0 0 0 0 0 0 0 0 0 0 0 0 0 0 127 0" result="hardAlpha"/><feOffset dy="2"/><feGaussianBlur stdDeviation="2"/><feComposite in2="hardAlpha" operator="out"/><feColorMatrix values="0 0 0 0 0 0 0 0 0 0.744333 0 0 0 0 0.845833 0 0 0 0.2 0"/><feBlend in2="BackgroundImageFix" result="effect1_dropShadow_117_20278"/><feBlend in="SourceGraphic" in2="effect1_dropShadow_117_20278" result="shape"/></filter><filter id="filter4_d_117_20278" x="1706.43" y="16.794" width="17.2" height="17.2" filterUnits="userSpaceOnUse" color-interpolation-filters="sRGB"><feFlood flood-opacity="0" result="BackgroundImageFix"/><feColorMatrix in="SourceAlpha" values="0 0 0 0 0 0 0 0 0 0 0 0 0 0 0 0 0 0 127 0" result="hardAlpha"/><feOffset dy="2"/><feGaussianBlur stdDeviation="2"/><feComposite in2="hardAlpha" operator="out"/><feColorMatrix values="0 0 0 0 0 0 0 0 0 0.744333 0 0 0 0 0.845833 0 0 0 0.2 0"/><feBlend in2="BackgroundImageFix" result="effect1_dropShadow_117_20278"/><feBlend in="SourceGraphic" in2="effect1_dropShadow_117_20278" result="shape"/></filter><filter id="filter5_d_117_20278" x="240.697" y="209.351" width="14.501" height="14.501" filterUnits="userSpaceOnUse" color-interpolation-filters="sRGB"><feFlood flood-opacity="0" result="BackgroundImageFix"/><feColorMatrix in="SourceAlpha" values="0 0 0 0 0 0 0 0 0 0 0 0 0 0 0 0 0 0 127 0" result="hardAlpha"/><feOffset dy="2"/><feGaussianBlur stdDeviation="2"/><feComposite in2="hardAlpha" operator="out"/><feColorMatrix values="0 0 0 0 0 0 0 0 0 0.744333 0 0 0 0 0.845833 0 0 0 0.2 0"/><feBlend in2="BackgroundImageFix" result="effect1_dropShadow_117_20278"/><feBlend in="SourceGraphic" in2="effect1_dropShadow_117_20278" result="shape"/></filter><filter id="filter6_d_117_20278" x="567.175" y="250.521" width="17.902" height="17.902" filterUnits="userSpaceOnUse" color-interpolation-filters="sRGB"><feFlood flood-opacity="0" result="BackgroundImageFix"/><feColorMatrix in="SourceAlpha" values="0 0 0 0 0 0 0 0 0 0 0 0 0 0 0 0 0 0 127 0" result="hardAlpha"/><feOffset dy="2"/><feGaussianBlur stdDeviation="2"/><feComposite in2="hardAlpha" operator="out"/><feColorMatrix values="0 0 0 0 0 0 0 0 0 0.744333 0 0 0 0 0.845833 0 0 0 0.2 0"/><feBlend in2="BackgroundImageFix" result="effect1_dropShadow_117_20278"/><feBlend in="SourceGraphic" in2="effect1_dropShadow_117_20278" result="shape"/></filter><filter id="filter7_d_117_20278" x="1241.89" y="391.477" width="16.8" height="16.8" filterUnits="userSpaceOnUse" color-interpolation-filters="sRGB"><feFlood flood-opacity="0" result="BackgroundImageFix"/><feColorMatrix in="SourceAlpha" values="0 0 0 0 0 0 0 0 0 0 0 0 0 0 0 0 0 0 127 0" result="hardAlpha"/><feOffset dy="2"/><feGaussianBlur stdDeviation="2"/><feComposite in2="hardAlpha" operator="out"/><feColorMatrix values="0 0 0 0 0 0 0 0 0 0.744333 0 0 0 0 0.845833 0 0 0 0.2 0"/><feBlend in2="BackgroundImageFix" result="effect1_dropShadow_117_20278"/><feBlend in="SourceGraphic" in2="effect1_dropShadow_117_20278" result="shape"/></filter><filter id="filter8_d_117_20278" x="1160.48" y="259.694" width="15.501" height="15.501" filterUnits="userSpaceOnUse" color-interpolation-filters="sRGB"><feFlood flood-opacity="0" result="BackgroundImageFix"/><feColorMatrix in="SourceAlpha" values="0 0 0 0 0 0 0 0 0 0 0 0 0 0 0 0 0 0 127 0" result="hardAlpha"/><feOffset dy="2"/><feGaussianBlur stdDeviation="2"/><feComposite in2="hardAlpha" operator="out"/><feColorMatrix values="0 0 0 0 0 0 0 0 0 0.744333 0 0 0 0 0.845833 0 0 0 0.2 0"/><feBlend in2="BackgroundImageFix" result="effect1_dropShadow_117_20278"/><feBlend in="SourceGraphic" in2="effect1_dropShadow_117_20278" result="shape"/></filter><filter id="filter9_d_117_20278" x="1877.17" y="205.778" width="18.701" height="18.701" filterUnits="userSpaceOnUse" color-interpolation-filters="sRGB"><feFlood flood-opacity="0" result="BackgroundImageFix"/><feColorMatrix in="SourceAlpha" values="0 0 0 0 0 0 0 0 0 0 0 0 0 0 0 0 0 0 127 0" result="hardAlpha"/><feOffset dy="2"/><feGaussianBlur stdDeviation="2"/><feComposite in2="hardAlpha" operator="out"/><feColorMatrix values="0 0 0 0 0 0 0 0 0 0.744333 0 0 0 0 0.845833 0 0 0 0.2 0"/><feBlend in2="BackgroundImageFix" result="effect1_dropShadow_117_20278"/><feBlend in="SourceGraphic" in2="effect1_dropShadow_117_20278" result="shape"/></filter><filter id="filter10_d_117_20278" x="78.856" y="459.562" width="15.301" height="15.301" filterUnits="userSpaceOnUse" color-interpolation-filters="sRGB"><feFlood flood-opacity="0" result="BackgroundImageFix"/><feColorMatrix in="SourceAlpha" values="0 0 0 0 0 0 0 0 0 0 0 0 0 0 0 0 0 0 127 0" result="hardAlpha"/><feOffset dy="2"/><feGaussianBlur stdDeviation="2"/><feComposite in2="hardAlpha" operator="out"/><feColorMatrix values="0 0 0 0 0 0 0 0 0 0.744333 0 0 0 0 0.845833 0 0 0 0.2 0"/><feBlend in2="BackgroundImageFix" result="effect1_dropShadow_117_20278"/><feBlend in="SourceGraphic" in2="effect1_dropShadow_117_20278" result="shape"/></filter><filter id="filter11_d_117_20278" x="515.1" y="611.627" width="19.902" height="19.903" filterUnits="userSpaceOnUse" color-interpolation-filters="sRGB"><feFlood flood-opacity="0" result="BackgroundImageFix"/><feColorMatrix in="SourceAlpha" values="0 0 0 0 0 0 0 0 0 0 0 0 0 0 0 0 0 0 127 0" result="hardAlpha"/><feOffset dy="2"/><feGaussianBlur stdDeviation="2"/><feComposite in2="hardAlpha" operator="out"/><feColorMatrix values="0 0 0 0 0 0 0 0 0 0.744333 0 0 0 0 0.845833 0 0 0 0.2 0"/><feBlend in2="BackgroundImageFix" result="effect1_dropShadow_117_20278"/><feBlend in="SourceGraphic" in2="effect1_dropShadow_117_20278" result="shape"/></filter><filter id="filter12_d_117_20278" x="850.835" y="464.129" width="18.901" height="18.9" filterUnits="userSpaceOnUse" color-interpolation-filters="sRGB"><feFlood flood-opacity="0" result="BackgroundImageFix"/><feColorMatrix in="SourceAlpha" values="0 0 0 0 0 0 0 0 0 0 0 0 0 0 0 0 0 0 127 0" result="hardAlpha"/><feOffset dy="2"/><feGaussianBlur stdDeviation="2"/><feComposite in2="hardAlpha" operator="out"/><feColorMatrix values="0 0 0 0 0 0 0 0 0 0.744333 0 0 0 0 0.845833 0 0 0 0.2 0"/><feBlend in2="BackgroundImageFix" result="effect1_dropShadow_117_20278"/><feBlend in="SourceGraphic" in2="effect1_dropShadow_117_20278" result="shape"/></filter><filter id="filter13_d_117_20278" x="1363.98" y="544.608" width="16.7" height="16.7" filterUnits="userSpaceOnUse" color-interpolation-filters="sRGB"><feFlood flood-opacity="0" result="BackgroundImageFix"/><feColorMatrix in="SourceAlpha" values="0 0 0 0 0 0 0 0 0 0 0 0 0 0 0 0 0 0 127 0" result="hardAlpha"/><feOffset dy="2"/><feGaussianBlur stdDeviation="2"/><feComposite in2="hardAlpha" operator="out"/><feColorMatrix values="0 0 0 0 0 0 0 0 0 0.744333 0 0 0 0 0.845833 0 0 0 0.2 0"/><feBlend in2="BackgroundImageFix" result="effect1_dropShadow_117_20278"/><feBlend in="SourceGraphic" in2="effect1_dropShadow_117_20278" result="shape"/></filter><filter id="filter14_d_117_20278" x="1821.42" y="542.478" width="16.9" height="16.9" filterUnits="userSpaceOnUse" color-interpolation-filters="sRGB"><feFlood flood-opacity="0" result="BackgroundImageFix"/><feColorMatrix in="SourceAlpha" values="0 0 0 0 0 0 0 0 0 0 0 0 0 0 0 0 0 0 127 0" result="hardAlpha"/><feOffset dy="2"/><feGaussianBlur stdDeviation="2"/><feComposite in2="hardAlpha" operator="out"/><feColorMatrix values="0 0 0 0 0 0 0 0 0 0.744333 0 0 0 0 0.845833 0 0 0 0.2 0"/><feBlend in2="BackgroundImageFix" result="effect1_dropShadow_117_20278"/><feBlend in="SourceGraphic" in2="effect1_dropShadow_117_20278" result="shape"/></filter><filter id="filter15_d_117_20278" x="108.582" y="627.66" width="17.1" height="17.1" filterUnits="userSpaceOnUse" color-interpolation-filters="sRGB"><feFlood flood-opacity="0" result="BackgroundImageFix"/><feColorMatrix in="SourceAlpha" values="0 0 0 0 0 0 0 0 0 0 0 0 0 0 0 0 0 0 127 0" result="hardAlpha"/><feOffset dy="2"/><feGaussianBlur stdDeviation="2"/><feComposite in2="hardAlpha" operator="out"/><feColorMatrix values="0 0 0 0 0 0 0 0 0 0.744333 0 0 0 0 0.845833 0 0 0 0.2 0"/><feBlend in2="BackgroundImageFix" result="effect1_dropShadow_117_20278"/><feBlend in="SourceGraphic" in2="effect1_dropShadow_117_20278" result="shape"/></filter><filter id="filter16_d_117_20278" x="418.548" y="698.151" width="18.501" height="18.502" filterUnits="userSpaceOnUse" color-interpolation-filters="sRGB"><feFlood flood-opacity="0" result="BackgroundImageFix"/><feColorMatrix in="SourceAlpha" values="0 0 0 0 0 0 0 0 0 0 0 0 0 0 0 0 0 0 127 0" result="hardAlpha"/><feOffset dy="2"/><feGaussianBlur stdDeviation="2"/><feComposite in2="hardAlpha" operator="out"/><feColorMatrix values="0 0 0 0 0 0 0 0 0 0.744333 0 0 0 0 0.845833 0 0 0 0.2 0"/><feBlend in2="BackgroundImageFix" result="effect1_dropShadow_117_20278"/><feBlend in="SourceGraphic" in2="effect1_dropShadow_117_20278" result="shape"/></filter><filter id="filter17_d_117_20278" x="1108.12" y="724.946" width="19.3" height="19.3" filterUnits="userSpaceOnUse" color-interpolation-filters="sRGB"><feFlood flood-opacity="0" result="BackgroundImageFix"/><feColorMatrix in="SourceAlpha" values="0 0 0 0 0 0 0 0 0 0 0 0 0 0 0 0 0 0 127 0" result="hardAlpha"/><feOffset dy="2"/><feGaussianBlur stdDeviation="2"/><feComposite in2="hardAlpha" operator="out"/><feColorMatrix values="0 0 0 0 0 0 0 0 0 0.744333 0 0 0 0 0.845833 0 0 0 0.2 0"/><feBlend in2="BackgroundImageFix" result="effect1_dropShadow_117_20278"/><feBlend in="SourceGraphic" in2="effect1_dropShadow_117_20278" result="shape"/></filter><filter id="filter18_d_117_20278" x="1429.98" y="710.552" width="14.8" height="14.8" filterUnits="userSpaceOnUse" color-interpolation-filters="sRGB"><feFlood flood-opacity="0" result="BackgroundImageFix"/><feColorMatrix in="SourceAlpha" values="0 0 0 0 0 0 0 0 0 0 0 0 0 0 0 0 0 0 127 0" result="hardAlpha"/><feOffset dy="2"/><feGaussianBlur stdDeviation="2"/><feComposite in2="hardAlpha" operator="out"/><feColorMatrix values="0 0 0 0 0 0 0 0 0 0.744333 0 0 0 0 0.845833 0 0 0 0.2 0"/><feBlend in2="BackgroundImageFix" result="effect1_dropShadow_117_20278"/><feBlend in="SourceGraphic" in2="effect1_dropShadow_117_20278" result="shape"/></filter><filter id="filter19_d_117_20278" x="1681.14" y="734.068" width="18.203" height="18.203" filterUnits="userSpaceOnUse" color-interpolation-filters="sRGB"><feFlood flood-opacity="0" result="BackgroundImageFix"/><feColorMatrix in="SourceAlpha" values="0 0 0 0 0 0 0 0 0 0 0 0 0 0 0 0 0 0 127 0" result="hardAlpha"/><feOffset dy="2"/><feGaussianBlur stdDeviation="2"/><feComposite in2="hardAlpha" operator="out"/><feColorMatrix values="0 0 0 0 0 0 0 0 0 0.744333 0 0 0 0 0.845833 0 0 0 0.2 0"/><feBlend in2="BackgroundImageFix" result="effect1_dropShadow_117_20278"/><feBlend in="SourceGraphic" in2="effect1_dropShadow_117_20278" result="shape"/></filter><filter id="filter20_d_117_20278" x="22.43" y="976.066" width="17.202" height="17.202" filterUnits="userSpaceOnUse" color-interpolation-filters="sRGB"><feFlood flood-opacity="0" result="BackgroundImageFix"/><feColorMatrix in="SourceAlpha" values="0 0 0 0 0 0 0 0 0 0 0 0 0 0 0 0 0 0 127 0" result="hardAlpha"/><feOffset dy="2"/><feGaussianBlur stdDeviation="2"/><feComposite in2="hardAlpha" operator="out"/><feColorMatrix values="0 0 0 0 0 0 0 0 0 0.744333 0 0 0 0 0.845833 0 0 0 0.2 0"/><feBlend in2="BackgroundImageFix" result="effect1_dropShadow_117_20278"/><feBlend in="SourceGraphic" in2="effect1_dropShadow_117_20278" result="shape"/></filter><filter id="filter21_d_117_20278" x="527.214" y="1056.37" width="18" height="18" filterUnits="userSpaceOnUse" color-interpolation-filters="sRGB"><feFlood flood-opacity="0" result="BackgroundImageFix"/><feColorMatrix in="SourceAlpha" values="0 0 0 0 0 0 0 0 0 0 0 0 0 0 0 0 0 0 127 0" result="hardAlpha"/><feOffset dy="2"/><feGaussianBlur stdDeviation="2"/><feComposite in2="hardAlpha" operator="out"/><feColorMatrix values="0 0 0 0 0 0 0 0 0 0.744333 0 0 0 0 0.845833 0 0 0 0.2 0"/><feBlend in2="BackgroundImageFix" result="effect1_dropShadow_117_20278"/><feBlend in="SourceGraphic" in2="effect1_dropShadow_117_20278" result="shape"/></filter><filter id="filter22_d_117_20278" x="845.851" y="1031.26" width="19.6" height="19.6" filterUnits="userSpaceOnUse" color-interpolation-filters="sRGB"><feFlood flood-opacity="0" result="BackgroundImageFix"/><feColorMatrix in="SourceAlpha" values="0 0 0 0 0 0 0 0 0 0 0 0 0 0 0 0 0 0 127 0" result="hardAlpha"/><feOffset dy="2"/><feGaussianBlur stdDeviation="2"/><feComposite in2="hardAlpha" operator="out"/><feColorMatrix values="0 0 0 0 0 0 0 0 0 0.744333 0 0 0 0 0.845833 0 0 0 0.2 0"/><feBlend in2="BackgroundImageFix" result="effect1_dropShadow_117_20278"/><feBlend in="SourceGraphic" in2="effect1_dropShadow_117_20278" result="shape"/></filter><filter id="filter23_d_117_20278" x="1193.3" y="944.981" width="14.5" height="14.5" filterUnits="userSpaceOnUse" color-interpolation-filters="sRGB"><feFlood flood-opacity="0" result="BackgroundImageFix"/><feColorMatrix in="SourceAlpha" values="0 0 0 0 0 0 0 0 0 0 0 0 0 0 0 0 0 0 127 0" result="hardAlpha"/><feOffset dy="2"/><feGaussianBlur stdDeviation="2"/><feComposite in2="hardAlpha" operator="out"/><feColorMatrix values="0 0 0 0 0 0 0 0 0 0.744333 0 0 0 0 0.845833 0 0 0 0.2 0"/><feBlend in2="BackgroundImageFix" result="effect1_dropShadow_117_20278"/><feBlend in="SourceGraphic" in2="effect1_dropShadow_117_20278" result="shape"/></filter><filter id="filter24_d_117_20278" x="1732.43" y="1038.14" width="17.802" height="17.802" filterUnits="userSpaceOnUse" color-interpolation-filters="sRGB"><feFlood flood-opacity="0" result="BackgroundImageFix"/><feColorMatrix in="SourceAlpha" values="0 0 0 0 0 0 0 0 0 0 0 0 0 0 0 0 0 0 127 0" result="hardAlpha"/><feOffset dy="2"/><feGaussianBlur stdDeviation="2"/><feComposite in2="hardAlpha" operator="out"/><feColorMatrix values="0 0 0 0 0 0 0 0 0 0.744333 0 0 0 0 0.845833 0 0 0 0.2 0"/><feBlend in2="BackgroundImageFix" result="effect1_dropShadow_117_20278"/><feBlend in="SourceGraphic" in2="effect1_dropShadow_117_20278" result="shape"/></filter><radialGradient id="paint0_radial_117_20278" cx="0" cy="0" r="1" gradientUnits="userSpaceOnUse" gradientTransform="rotate(179.483 1019.48 272.908) scale(308.092 393.989)"><stop offset=".213" stop-color="#005E57"/><stop offset=".361" stop-color="#003D38"/><stop offset=".514" stop-color="#002220"/><stop offset=".67" stop-color="#000F0E"/><stop offset=".83" stop-color="#000403"/><stop offset="1"/></radialGradient><radialGradient id="paint1_radial_117_20278" cx="0" cy="0" r="1" gradientUnits="userSpaceOnUse" gradientTransform="rotate(.517 -59584.024 -13196.288) scale(308.092 393.989)"><stop offset=".213" stop-color="#005E57"/><stop offset=".361" stop-color="#003D38"/><stop offset=".514" stop-color="#002220"/><stop offset=".67" stop-color="#000F0E"/><stop offset=".83" stop-color="#000403"/><stop offset="1"/></radialGradient><clipPath id="clip0_117_20278"><path fill="#fff" transform="translate(1442 30)" d="M0 0h478v1047H0z"/></clipPath><clipPath id="clip1_117_20278"><path fill="#fff" transform="matrix(-1 0 0 1 478 30)" d="M0 0h478v1047H0z"/></clipPath></defs></svg>