<svg width="1768" height="574" fill="none" xmlns="http://www.w3.org/2000/svg"><g style="mix-blend-mode:screen" opacity=".05"><path d="M137.953 125.045h-3.679v323.91h3.679v-323.91z" fill="url(#paint0_linear_87_9505)"/><path d="M183.446 52.805h-3.678v468.39h3.678V52.805z" fill="url(#paint1_linear_87_9505)"/><path d="M210.056 70.884h-3.679v432.232h3.679V70.884z" fill="url(#paint2_linear_87_9505)"/><path d="M256.53 127.907h-3.678v318.186h3.678V127.907z" fill="url(#paint3_linear_87_9505)"/><path d="M363.949 165.496h-3.678v243.008h3.678V165.496z" fill="url(#paint4_linear_87_9505)"/><path d="M412.018 213.593h-3.678v146.852h3.678V213.593z" fill="url(#paint5_linear_87_9505)"/><path d="M532.006 166.061h-3.678V409.37h3.678V166.061z" fill="url(#paint6_linear_87_9505)"/><path d="M581.301 163.01h-3.678v246.549h3.678V163.01z" fill="url(#paint7_linear_87_9505)"/><path d="M481.117 196.305h-3.679v181.39h3.679v-181.39z" fill="url(#paint8_linear_87_9505)"/><path d="M530.106 151.334h-3.679v271.332h3.679V151.334z" fill="url(#paint9_linear_87_9505)"/><path d="M558.493 17.928h-3.678V556.11h3.678V17.928z" fill="url(#paint10_linear_87_9505)"/><path d="M607.972 166.287h-3.678v241.464h3.678V166.287z" fill="url(#paint11_linear_87_9505)"/><path d="M720.971 181.541h-3.679v210.956h3.679V181.541z" fill="url(#paint12_linear_87_9505)"/><path d="M771.002 55.705h-3.679v462.627h3.679V55.705z" fill="url(#paint13_linear_87_9505)"/><path d="M894.546 132.916h-3.679v309.938h3.679V132.916z" fill="url(#paint14_linear_87_9505)"/><path d="M944.76 131.334h-3.678v309.524h3.678V131.334z" fill="url(#paint15_linear_87_9505)"/><path d="M588.904 192.84h-3.679v188.32h3.679V192.84z" fill="url(#paint16_linear_87_9505)"/><path d="M638.506 166.701h-3.679v240.598h3.679V166.701z" fill="url(#paint17_linear_87_9505)"/><path d="M667.2 181.691h-3.679v210.655h3.679V181.691z" fill="url(#paint18_linear_87_9505)"/><path d="M717.108 191.71h-3.679v190.618h3.679V191.71z" fill="url(#paint19_linear_87_9505)"/><path d="M830.781 163.311h-3.679v247.415h3.679V163.311z" fill="url(#paint20_linear_87_9505)"/><path d="M880.996 76.42h-3.679v421.197h3.679V76.42z" fill="url(#paint21_linear_87_9505)"/><path d="M1004.54 193.33h-3.68v188.395h3.68V193.33z" fill="url(#paint22_linear_87_9505)"/><path d="M1054.57 192.765h-3.68v187.378h3.68V192.765z" fill="url(#paint23_linear_87_9505)"/><path d="M952.424 151.409h-3.678v271.219h3.678V151.409z" fill="url(#paint24_linear_87_9505)"/><path d="M1002.58 129.188h-3.681V444.85h3.681V129.188z" fill="url(#paint25_linear_87_9505)"/><path d="M1031.46 173.707h-3.68v226.549h3.68V173.707z" fill="url(#paint26_linear_87_9505)"/><path d="M1081.43 127.606h-3.68v318.788h3.68V127.606z" fill="url(#paint27_linear_87_9505)"/><path d="M1194.18 104.593h-3.68v364.852h3.68V104.593z" fill="url(#paint28_linear_87_9505)"/><path d="M1243.47 166.061h-3.68v241.878h3.68V166.061z" fill="url(#paint29_linear_87_9505)"/><path d="M1363.4 129.075h-3.68v317.696h3.68V129.075z" fill="url(#paint30_linear_87_9505)"/><path d="M1411.41 130.619h-3.68v310.992h3.68V130.619z" fill="url(#paint31_linear_87_9505)"/><path d="M507.481 75.064h-3.678v423.872h3.678V75.065z" fill="url(#paint32_linear_87_9505)"/><path d="M556.593 128.886h-3.679v316.228h3.679V128.886z" fill="url(#paint33_linear_87_9505)"/><path d="M585.103 84.33h-3.679v405.378h3.679V84.33z" fill="url(#paint34_linear_87_9505)"/><path d="M634.704 25.009h-3.678V548.99h3.678V25.009z" fill="url(#paint35_linear_87_9505)"/><path d="M747.887 54.877h-3.679v464.247h3.679V54.877z" fill="url(#paint36_linear_87_9505)"/><path d="M797.979 142.031H794.3v289.976h3.679V142.031z" fill="url(#paint37_linear_87_9505)"/><path d="M921.584 211.371h-3.678v152.2h3.678v-152.2z" fill="url(#paint38_linear_87_9505)"/><path d="M971.738 210.655h-3.679v151.824h3.679V210.655z" fill="url(#paint39_linear_87_9505)"/><path d="M869.408 155.665h-3.679v262.632h3.679V155.665z" fill="url(#paint40_linear_87_9505)"/><path d="M919.622 115.327h-3.678V458.71h3.678V115.327z" fill="url(#paint41_linear_87_9505)"/><path d="M948.623 200.147h-3.679v173.706h3.679V200.147z" fill="url(#paint42_linear_87_9505)"/><path d="M998.715 176.117h-3.679v221.766h3.679V176.117z" fill="url(#paint43_linear_87_9505)"/><path d="M1112.14 179.469h-3.68v215.062h3.68V179.469z" fill="url(#paint44_linear_87_9505)"/><path d="M1161.81 100.601h-3.68v372.798h3.68V100.601z" fill="url(#paint45_linear_87_9505)"/><path d="M1283.02 165.872h-3.68v243.687h3.68V165.872z" fill="url(#paint46_linear_87_9505)"/><path d="M1331.76 166.55h-3.68v239.506h3.68V166.55z" fill="url(#paint47_linear_87_9505)"/><path d="M979.463 191.974h-3.679v190.052h3.679V191.974z" fill="url(#paint48_linear_87_9505)"/><path d="M1029.56 88.171h-3.68v397.657h3.68V88.172z" fill="url(#paint49_linear_87_9505)"/><path d="M1058.43 126.777h-3.68V447.26h3.68V126.777z" fill="url(#paint50_linear_87_9505)"/><path d="M1108.28 207.453h-3.68v159.131h3.68V207.453z" fill="url(#paint51_linear_87_9505)"/><path d="M1220.73 158.49h-3.68v257.057h3.68V158.49z" fill="url(#paint52_linear_87_9505)"/><path d="M1269.84 126.062h-3.68v321.914h3.68V126.062z" fill="url(#paint53_linear_87_9505)"/><path d="M1389.34 139.696h-3.68v296.341h3.68V139.696z" fill="url(#paint54_linear_87_9505)"/><path d="M1437.16 141.353h-3.68V430.99h3.68V141.353z" fill="url(#paint55_linear_87_9505)"/><path d="M1339.18 41.656h-3.68v490.725h3.68V41.656z" fill="url(#paint56_linear_87_9505)"/><path d="M1387.43 119.696h-3.67v334.645h3.67V119.696z" fill="url(#paint57_linear_87_9505)"/><path d="M1415.09 155.929h-3.68v262.142h3.68V155.929z" fill="url(#paint58_linear_87_9505)"/><path d="M1462.67 194.12h-3.68v185.797h3.68V194.12z" fill="url(#paint59_linear_87_9505)"/><path d="M1568.74 197.51h-3.68v178.98h3.68V197.51z" fill="url(#paint60_linear_87_9505)"/><path d="M1614.54 194.535h-3.68v184.968h3.68V194.535z" fill="url(#paint61_linear_87_9505)"/><path d="M1724.53 79.584h-3.68v417.242h3.68V79.584z" fill="url(#paint62_linear_87_9505)"/><path d="M1768 87.305h-3.68v397.13h3.68V87.305z" fill="url(#paint63_linear_87_9505)"/><path d="M3.679 134.95H0v304.137h3.679V134.95z" fill="url(#paint64_linear_87_9505)"/><path d="M47.15 175.251h-3.68v223.498h3.68V175.251z" fill="url(#paint65_linear_87_9505)"/><path d="M72.532 167.492h-3.678v239.054h3.678V167.492z" fill="url(#paint66_linear_87_9505)"/><path d="M117.106 70.884h-3.678v432.232h3.678V70.884z" fill="url(#paint67_linear_87_9505)"/><path d="M220.724 134.875h-3.679v304.25h3.679v-304.25z" fill="url(#paint68_linear_87_9505)"/><path d="M267.321 145.647h-3.678v282.706h3.678V145.647z" fill="url(#paint69_linear_87_9505)"/><path d="M384.244 113.858h-3.679v348.28h3.679v-348.28z" fill="url(#paint70_linear_87_9505)"/><path d="M432.497 108.284h-3.679v355.398h3.679V108.284z" fill="url(#paint71_linear_87_9505)"/><path d="M334.52 49.152h-3.679v475.734h3.679V49.152z" fill="url(#paint72_linear_87_9505)"/><path d="M382.343 190.166h-3.679v193.706h3.679V190.166z" fill="url(#paint73_linear_87_9505)"/><path d="M410.179 217.397H406.5v139.206h3.679V217.397z" fill="url(#paint74_linear_87_9505)"/><path d="M458.616 14.425h-3.679v545.187h3.679V14.425z" fill="url(#paint75_linear_87_9505)"/><path d="M569.897 201.766h-3.678v170.505h3.678V201.766z" fill="url(#paint76_linear_87_9505)"/><path d="M619.376 162.106h-3.678v249.788h3.678V162.106z" fill="url(#paint77_linear_87_9505)"/><path d="M742.123 71.9h-3.678v432.723h3.678V71.901z" fill="url(#paint78_linear_87_9505)"/><path d="M792.216 68.398h-3.679v434.681h3.679V68.398z" fill="url(#paint79_linear_87_9505)"/><path d="M439.915 87.23h-3.678v399.578h3.678V87.23z" fill="url(#paint80_linear_87_9505)"/><path d="M488.659 123.124h-3.679v327.752h3.679V123.124z" fill="url(#paint81_linear_87_9505)"/><path d="M516.924 34.312h-3.679v505.376h3.679V34.312z" fill="url(#paint82_linear_87_9505)"/><path d="M566.096 188.094h-3.679v197.849h3.679V188.094z" fill="url(#paint83_linear_87_9505)"/><path d="M678.727 113.557h-3.679v346.924h3.679V113.557z" fill="url(#paint84_linear_87_9505)"/><path d="M728.635 33.446h-3.679v507.108h3.679V33.446z" fill="url(#paint85_linear_87_9505)"/><path d="M852.056 207.002h-3.678v160.976h3.678V207.002z" fill="url(#paint86_linear_87_9505)"/><path d="M902.271 206.022h-3.679v161.014h3.679V206.022z" fill="url(#paint87_linear_87_9505)"/><path d="M799.941 0h-3.679v574h3.679V0z" fill="url(#paint88_linear_87_9505)"/><path d="M850.094 179.544h-3.678v214.949h3.678V179.544z" fill="url(#paint89_linear_87_9505)"/><path d="M879.095 106.627h-3.679v360.784h3.679V106.627z" fill="url(#paint90_linear_87_9505)"/><path d="M929.31 180.109h-3.679v213.782h3.679V180.109z" fill="url(#paint91_linear_87_9505)"/><path d="M1043.04 16.76h-3.67v540.48h3.67V16.76z" fill="url(#paint92_linear_87_9505)"/><path d="M1092.95 188.433h-3.68v197.171h3.68V188.433z" fill="url(#paint93_linear_87_9505)"/><path d="M1215.09 26.628h-3.68v523.757h3.68V26.629z" fill="url(#paint94_linear_87_9505)"/><path d="M1264.2 27.344h-3.68v516.374h3.68V27.344z" fill="url(#paint95_linear_87_9505)"/><path d="M360.271 148.095h-3.679v277.81h3.679v-277.81z" fill="url(#paint96_linear_87_9505)"/><path d="M408.278 73.558H404.6v426.884h3.678V73.558z" fill="url(#paint97_linear_87_9505)"/><path d="M436.237 87.004h-3.679v400.03h3.679V87.004z" fill="url(#paint98_linear_87_9505)"/><path d="M484.857 15.179h-3.679v543.68h3.679V15.179z" fill="url(#paint99_linear_87_9505)"/><path d="M596.507 93.972h-3.679v386.094h3.679V93.972z" fill="url(#paint100_linear_87_9505)"/><path d="M646.17 86.477h-3.679V487.56h3.679V86.477z" fill="url(#paint101_linear_87_9505)"/><path d="M769.101 82.786h-3.679v410.801h3.679V82.786z" fill="url(#paint102_linear_87_9505)"/><path d="M819.193 79.697h-3.679V491.93h3.679V79.697z" fill="url(#paint103_linear_87_9505)"/><path d="M717.108 199.619h-3.679v174.762h3.679V199.619z" fill="url(#paint104_linear_87_9505)"/><path d="M767.139 37.74h-3.679v498.52h3.679V37.739z" fill="url(#paint105_linear_87_9505)"/><path d="M796.078 180.034h-3.679v213.932h3.679V180.034z" fill="url(#paint106_linear_87_9505)"/><path d="M846.232 106.589h-3.679v360.822h3.679V106.589z" fill="url(#paint107_linear_87_9505)"/><path d="M960.15 85.422h-3.679v403.194h3.679V85.422z" fill="url(#paint108_linear_87_9505)"/><path d="M1010.3 163.01h-3.68v248.018h3.68V163.01z" fill="url(#paint109_linear_87_9505)"/><path d="M1133.17 104.367h-3.68v367.375h3.68V104.367z" fill="url(#paint110_linear_87_9505)"/><path d="M1182.77 104.216h-3.67v363.458h3.67V104.216z" fill="url(#paint111_linear_87_9505)"/><path d="M826.918 157.85h-3.678v258.338h3.678V157.85z" fill="url(#paint112_linear_87_9505)"/><path d="M877.133 129.414h-3.679v315.172h3.679V129.414z" fill="url(#paint113_linear_87_9505)"/><path d="M906.134 185.269h-3.679v203.462h3.679V185.269z" fill="url(#paint114_linear_87_9505)"/><path d="M956.287 84.066h-3.679v405.868h3.679V84.066z" fill="url(#paint115_linear_87_9505)"/><path d="M1069.96 68.662h-3.68v436.676h3.68V68.661z" fill="url(#paint116_linear_87_9505)"/><path d="M1119.81 91.11h-3.68v391.78h3.68V91.109z" fill="url(#paint117_linear_87_9505)"/><path d="M1241.57 206.474h-3.68v162.031h3.68V206.474z" fill="url(#paint118_linear_87_9505)"/><path d="M1290.56 206.776h-3.68v159.545h3.68V206.776z" fill="url(#paint119_linear_87_9505)"/><path d="M1190.38 91.825h-3.68v390.388h3.68V91.825z" fill="url(#paint120_linear_87_9505)"/><path d="M1239.67 95.026h-3.68v383.948h3.68V95.026z" fill="url(#paint121_linear_87_9505)"/><path d="M1268 201.917h-3.68v170.128h3.68V201.917z" fill="url(#paint122_linear_87_9505)"/><path d="M1316.8 54.462h-3.68v465.113h3.68V54.462z" fill="url(#paint123_linear_87_9505)"/><path d="M1426.12 148.924h-3.68v276.115h3.68V148.924z" fill="url(#paint124_linear_87_9505)"/><path d="M1473.58 46.252h-3.68V527.71h3.68V46.251z" fill="url(#paint125_linear_87_9505)"/><path d="M1588.23 132.502h-3.68v310.804h3.68V132.502z" fill="url(#paint126_linear_87_9505)"/><path d="M1633.73 136.231h-3.68v299.806h3.68V136.231z" fill="url(#paint127_linear_87_9505)"/></g><defs><linearGradient id="paint0_linear_87_9505" x1="136.086" y1="448.961" x2="136.086" y2="125.05" gradientUnits="userSpaceOnUse"><stop/><stop offset=".5" stop-color="#00EBFF"/><stop offset="1"/></linearGradient><linearGradient id="paint1_linear_87_9505" x1="181.634" y1="521.195" x2="181.634" y2="52.816" gradientUnits="userSpaceOnUse"><stop/><stop offset=".5" stop-color="#00EBFF"/><stop offset="1"/></linearGradient><linearGradient id="paint2_linear_87_9505" x1="208.189" y1="503.121" x2="208.189" y2="70.889" gradientUnits="userSpaceOnUse"><stop/><stop offset=".5" stop-color="#00EBFF"/><stop offset="1"/></linearGradient><linearGradient id="paint3_linear_87_9505" x1="254.671" y1="446.09" x2="254.671" y2="127.921" gradientUnits="userSpaceOnUse"><stop/><stop offset=".5" stop-color="#00EBFF"/><stop offset="1"/></linearGradient><linearGradient id="paint4_linear_87_9505" x1="362.083" y1="408.511" x2="362.083" y2="165.5" gradientUnits="userSpaceOnUse"><stop/><stop offset=".5" stop-color="#00EBFF"/><stop offset="1"/></linearGradient><linearGradient id="paint5_linear_87_9505" x1="410.172" y1="360.425" x2="410.172" y2="213.586" gradientUnits="userSpaceOnUse"><stop/><stop offset=".5" stop-color="#00EBFF"/><stop offset="1"/></linearGradient><linearGradient id="paint6_linear_87_9505" x1="530.167" y1="409.367" x2="530.167" y2="166.047" gradientUnits="userSpaceOnUse"><stop/><stop offset=".5" stop-color="#00EBFF"/><stop offset="1"/></linearGradient><linearGradient id="paint7_linear_87_9505" x1="579.466" y1="409.561" x2="579.466" y2="163.028" gradientUnits="userSpaceOnUse"><stop/><stop offset=".5" stop-color="#00EBFF"/><stop offset="1"/></linearGradient><linearGradient id="paint8_linear_87_9505" x1="479.287" y1="377.705" x2="479.287" y2="196.306" gradientUnits="userSpaceOnUse"><stop/><stop offset=".5" stop-color="#00EBFF"/><stop offset="1"/></linearGradient><linearGradient id="paint9_linear_87_9505" x1="528.277" y1="422.674" x2="528.277" y2="151.337" gradientUnits="userSpaceOnUse"><stop/><stop offset=".5" stop-color="#00EBFF"/><stop offset="1"/></linearGradient><linearGradient id="paint10_linear_87_9505" x1="556.678" y1="556.092" x2="556.678" y2="17.918" gradientUnits="userSpaceOnUse"><stop/><stop offset=".5" stop-color="#00EBFF"/><stop offset="1"/></linearGradient><linearGradient id="paint11_linear_87_9505" x1="606.121" y1="407.738" x2="606.121" y2="166.273" gradientUnits="userSpaceOnUse"><stop/><stop offset=".5" stop-color="#00EBFF"/><stop offset="1"/></linearGradient><linearGradient id="paint12_linear_87_9505" x1="719.117" y1="392.487" x2="719.117" y2="181.524" gradientUnits="userSpaceOnUse"><stop/><stop offset=".5" stop-color="#00EBFF"/><stop offset="1"/></linearGradient><linearGradient id="paint13_linear_87_9505" x1="769.167" y1="518.312" x2="769.167" y2="55.699" gradientUnits="userSpaceOnUse"><stop/><stop offset=".5" stop-color="#00EBFF"/><stop offset="1"/></linearGradient><linearGradient id="paint14_linear_87_9505" x1="892.689" y1="442.867" x2="892.689" y2="132.932" gradientUnits="userSpaceOnUse"><stop/><stop offset=".5" stop-color="#00EBFF"/><stop offset="1"/></linearGradient><linearGradient id="paint15_linear_87_9505" x1="942.895" y1="440.882" x2="942.895" y2="131.343" gradientUnits="userSpaceOnUse"><stop/><stop offset=".5" stop-color="#00EBFF"/><stop offset="1"/></linearGradient><linearGradient id="paint16_linear_87_9505" x1="587.074" y1="381.175" x2="587.074" y2="192.836" gradientUnits="userSpaceOnUse"><stop/><stop offset=".5" stop-color="#00EBFF"/><stop offset="1"/></linearGradient><linearGradient id="paint17_linear_87_9505" x1="636.665" y1="407.311" x2="636.665" y2="166.7" gradientUnits="userSpaceOnUse"><stop/><stop offset=".5" stop-color="#00EBFF"/><stop offset="1"/></linearGradient><linearGradient id="paint18_linear_87_9505" x1="665.373" y1="392.329" x2="665.373" y2="181.682" gradientUnits="userSpaceOnUse"><stop/><stop offset=".5" stop-color="#00EBFF"/><stop offset="1"/></linearGradient><linearGradient id="paint19_linear_87_9505" x1="715.273" y1="382.319" x2="715.273" y2="191.692" gradientUnits="userSpaceOnUse"><stop/><stop offset=".5" stop-color="#00EBFF"/><stop offset="1"/></linearGradient><linearGradient id="paint20_linear_87_9505" x1="828.965" y1="410.707" x2="828.965" y2="163.304" gradientUnits="userSpaceOnUse"><stop/><stop offset=".5" stop-color="#00EBFF"/><stop offset="1"/></linearGradient><linearGradient id="paint21_linear_87_9505" x1="879.171" y1="497.601" x2="879.171" y2="76.41" gradientUnits="userSpaceOnUse"><stop/><stop offset=".5" stop-color="#00EBFF"/><stop offset="1"/></linearGradient><linearGradient id="paint22_linear_87_9505" x1="1002.69" y1="381.753" x2="1002.69" y2="193.346" gradientUnits="userSpaceOnUse"><stop/><stop offset=".5" stop-color="#00EBFF"/><stop offset="1"/></linearGradient><linearGradient id="paint23_linear_87_9505" x1="1052.73" y1="380.151" x2="1052.73" y2="192.779" gradientUnits="userSpaceOnUse"><stop/><stop offset=".5" stop-color="#00EBFF"/><stop offset="1"/></linearGradient><linearGradient id="paint24_linear_87_9505" x1="950.615" y1="422.62" x2="950.615" y2="151.391" gradientUnits="userSpaceOnUse"><stop/><stop offset=".5" stop-color="#00EBFF"/><stop offset="1"/></linearGradient><linearGradient id="paint25_linear_87_9505" x1="1000.76" y1="444.832" x2="1000.76" y2="129.179" gradientUnits="userSpaceOnUse"><stop/><stop offset=".5" stop-color="#00EBFF"/><stop offset="1"/></linearGradient><linearGradient id="paint26_linear_87_9505" x1="1029.65" y1="400.289" x2="1029.65" y2="173.722" gradientUnits="userSpaceOnUse"><stop/><stop offset=".5" stop-color="#00EBFF"/><stop offset="1"/></linearGradient><linearGradient id="paint27_linear_87_9505" x1="1079.62" y1="446.404" x2="1079.62" y2="127.607" gradientUnits="userSpaceOnUse"><stop/><stop offset=".5" stop-color="#00EBFF"/><stop offset="1"/></linearGradient><linearGradient id="paint28_linear_87_9505" x1="1192.33" y1="469.423" x2="1192.33" y2="104.587" gradientUnits="userSpaceOnUse"><stop/><stop offset=".5" stop-color="#00EBFF"/><stop offset="1"/></linearGradient><linearGradient id="paint29_linear_87_9505" x1="1241.61" y1="407.938" x2="1241.61" y2="166.073" gradientUnits="userSpaceOnUse"><stop/><stop offset=".5" stop-color="#00EBFF"/><stop offset="1"/></linearGradient><linearGradient id="paint30_linear_87_9505" x1="1361.54" y1="446.779" x2="1361.54" y2="129.065" gradientUnits="userSpaceOnUse"><stop/><stop offset=".5" stop-color="#00EBFF"/><stop offset="1"/></linearGradient><linearGradient id="paint31_linear_87_9505" x1="1409.6" y1="441.599" x2="1409.6" y2="130.617" gradientUnits="userSpaceOnUse"><stop/><stop offset=".5" stop-color="#00EBFF"/><stop offset="1"/></linearGradient><linearGradient id="paint32_linear_87_9505" x1="505.627" y1="498.95" x2="505.627" y2="75.061" gradientUnits="userSpaceOnUse"><stop/><stop offset=".5" stop-color="#00EBFF"/><stop offset="1"/></linearGradient><linearGradient id="paint33_linear_87_9505" x1="554.782" y1="445.111" x2="554.782" y2="128.9" gradientUnits="userSpaceOnUse"><stop/><stop offset=".5" stop-color="#00EBFF"/><stop offset="1"/></linearGradient><linearGradient id="paint34_linear_87_9505" x1="583.27" y1="489.697" x2="583.27" y2="84.314" gradientUnits="userSpaceOnUse"><stop/><stop offset=".5" stop-color="#00EBFF"/><stop offset="1"/></linearGradient><linearGradient id="paint35_linear_87_9505" x1="632.843" y1="548.999" x2="632.843" y2="25.012" gradientUnits="userSpaceOnUse"><stop/><stop offset=".5" stop-color="#00EBFF"/><stop offset="1"/></linearGradient><linearGradient id="paint36_linear_87_9505" x1="746.053" y1="519.131" x2="746.053" y2="54.881" gradientUnits="userSpaceOnUse"><stop/><stop offset=".5" stop-color="#00EBFF"/><stop offset="1"/></linearGradient><linearGradient id="paint37_linear_87_9505" x1="796.16" y1="431.985" x2="796.16" y2="142.026" gradientUnits="userSpaceOnUse"><stop/><stop offset=".5" stop-color="#00EBFF"/><stop offset="1"/></linearGradient><linearGradient id="paint38_linear_87_9505" x1="919.727" y1="363.537" x2="919.727" y2="211.353" gradientUnits="userSpaceOnUse"><stop/><stop offset=".5" stop-color="#00EBFF"/><stop offset="1"/></linearGradient><linearGradient id="paint39_linear_87_9505" x1="969.909" y1="362.484" x2="969.909" y2="210.651" gradientUnits="userSpaceOnUse"><stop/><stop offset=".5" stop-color="#00EBFF"/><stop offset="1"/></linearGradient><linearGradient id="paint40_linear_87_9505" x1="867.583" y1="418.329" x2="867.583" y2="155.682" gradientUnits="userSpaceOnUse"><stop/><stop offset=".5" stop-color="#00EBFF"/><stop offset="1"/></linearGradient><linearGradient id="paint41_linear_87_9505" x1="917.796" y1="458.691" x2="917.796" y2="115.32" gradientUnits="userSpaceOnUse"><stop/><stop offset=".5" stop-color="#00EBFF"/><stop offset="1"/></linearGradient><linearGradient id="paint42_linear_87_9505" x1="946.755" y1="373.856" x2="946.755" y2="200.155" gradientUnits="userSpaceOnUse"><stop/><stop offset=".5" stop-color="#00EBFF"/><stop offset="1"/></linearGradient><linearGradient id="paint43_linear_87_9505" x1="996.903" y1="397.889" x2="996.903" y2="176.122" gradientUnits="userSpaceOnUse"><stop/><stop offset=".5" stop-color="#00EBFF"/><stop offset="1"/></linearGradient><linearGradient id="paint44_linear_87_9505" x1="1110.29" y1="394.54" x2="1110.29" y2="179.471" gradientUnits="userSpaceOnUse"><stop/><stop offset=".5" stop-color="#00EBFF"/><stop offset="1"/></linearGradient><linearGradient id="paint45_linear_87_9505" x1="1159.97" y1="473.41" x2="1159.97" y2="100.6" gradientUnits="userSpaceOnUse"><stop/><stop offset=".5" stop-color="#00EBFF"/><stop offset="1"/></linearGradient><linearGradient id="paint46_linear_87_9505" x1="1281.19" y1="409.555" x2="1281.19" y2="165.862" gradientUnits="userSpaceOnUse"><stop/><stop offset=".5" stop-color="#00EBFF"/><stop offset="1"/></linearGradient><linearGradient id="paint47_linear_87_9505" x1="1329.9" y1="406.064" x2="1329.9" y2="166.565" gradientUnits="userSpaceOnUse"><stop/><stop offset=".5" stop-color="#00EBFF"/><stop offset="1"/></linearGradient><linearGradient id="paint48_linear_87_9505" x1="977.624" y1="382.029" x2="977.624" y2="191.982" gradientUnits="userSpaceOnUse"><stop/><stop offset=".5" stop-color="#00EBFF"/><stop offset="1"/></linearGradient><linearGradient id="paint49_linear_87_9505" x1="1027.72" y1="485.828" x2="1027.72" y2="88.183" gradientUnits="userSpaceOnUse"><stop/><stop offset=".5" stop-color="#00EBFF"/><stop offset="1"/></linearGradient><linearGradient id="paint50_linear_87_9505" x1="1056.57" y1="447.252" x2="1056.57" y2="126.759" gradientUnits="userSpaceOnUse"><stop/><stop offset=".5" stop-color="#00EBFF"/><stop offset="1"/></linearGradient><linearGradient id="paint51_linear_87_9505" x1="1106.46" y1="366.565" x2="1106.46" y2="207.446" gradientUnits="userSpaceOnUse"><stop/><stop offset=".5" stop-color="#00EBFF"/><stop offset="1"/></linearGradient><linearGradient id="paint52_linear_87_9505" x1="1218.9" y1="415.527" x2="1218.9" y2="158.484" gradientUnits="userSpaceOnUse"><stop/><stop offset=".5" stop-color="#00EBFF"/><stop offset="1"/></linearGradient><linearGradient id="paint53_linear_87_9505" x1="1268.02" y1="447.955" x2="1268.02" y2="126.055" gradientUnits="userSpaceOnUse"><stop/><stop offset=".5" stop-color="#00EBFF"/><stop offset="1"/></linearGradient><linearGradient id="paint54_linear_87_9505" x1="1387.47" y1="436.024" x2="1387.47" y2="139.696" gradientUnits="userSpaceOnUse"><stop/><stop offset=".5" stop-color="#00EBFF"/><stop offset="1"/></linearGradient><linearGradient id="paint55_linear_87_9505" x1="1435.29" y1="430.991" x2="1435.29" y2="141.349" gradientUnits="userSpaceOnUse"><stop/><stop offset=".5" stop-color="#00EBFF"/><stop offset="1"/></linearGradient><linearGradient id="paint56_linear_87_9505" x1="1337.36" y1="532.363" x2="1337.36" y2="41.647" gradientUnits="userSpaceOnUse"><stop/><stop offset=".5" stop-color="#00EBFF"/><stop offset="1"/></linearGradient><linearGradient id="paint57_linear_87_9505" x1="1385.62" y1="454.331" x2="1385.62" y2="119.68" gradientUnits="userSpaceOnUse"><stop/><stop offset=".5" stop-color="#00EBFF"/><stop offset="1"/></linearGradient><linearGradient id="paint58_linear_87_9505" x1="1413.28" y1="418.074" x2="1413.28" y2="155.937" gradientUnits="userSpaceOnUse"><stop/><stop offset=".5" stop-color="#00EBFF"/><stop offset="1"/></linearGradient><linearGradient id="paint59_linear_87_9505" x1="1460.85" y1="379.896" x2="1460.85" y2="194.115" gradientUnits="userSpaceOnUse"><stop/><stop offset=".5" stop-color="#00EBFF"/><stop offset="1"/></linearGradient><linearGradient id="paint60_linear_87_9505" x1="1566.91" y1="376.49" x2="1566.91" y2="197.521" gradientUnits="userSpaceOnUse"><stop/><stop offset=".5" stop-color="#00EBFF"/><stop offset="1"/></linearGradient><linearGradient id="paint61_linear_87_9505" x1="1612.72" y1="379.484" x2="1612.72" y2="194.527" gradientUnits="userSpaceOnUse"><stop/><stop offset=".5" stop-color="#00EBFF"/><stop offset="1"/></linearGradient><linearGradient id="paint62_linear_87_9505" x1="1722.71" y1="496.826" x2="1722.71" y2="79.592" gradientUnits="userSpaceOnUse"><stop/><stop offset=".5" stop-color="#00EBFF"/><stop offset="1"/></linearGradient><linearGradient id="paint63_linear_87_9505" x1="1766.16" y1="484.432" x2="1766.16" y2="87.288" gradientUnits="userSpaceOnUse"><stop/><stop offset=".5" stop-color="#00EBFF"/><stop offset="1"/></linearGradient><linearGradient id="paint64_linear_87_9505" x1="1.839" y1="439.071" x2="1.839" y2="134.94" gradientUnits="userSpaceOnUse"><stop/><stop offset=".5" stop-color="#00EBFF"/><stop offset="1"/></linearGradient><linearGradient id="paint65_linear_87_9505" x1="45.29" y1="398.752" x2="45.29" y2="175.259" gradientUnits="userSpaceOnUse"><stop/><stop offset=".5" stop-color="#00EBFF"/><stop offset="1"/></linearGradient><linearGradient id="paint66_linear_87_9505" x1="70.694" y1="406.536" x2="70.694" y2="167.475" gradientUnits="userSpaceOnUse"><stop/><stop offset=".5" stop-color="#00EBFF"/><stop offset="1"/></linearGradient><linearGradient id="paint67_linear_87_9505" x1="115.28" y1="503.128" x2="115.28" y2="70.883" gradientUnits="userSpaceOnUse"><stop/><stop offset=".5" stop-color="#00EBFF"/><stop offset="1"/></linearGradient><linearGradient id="paint68_linear_87_9505" x1="218.865" y1="439.128" x2="218.865" y2="134.883" gradientUnits="userSpaceOnUse"><stop/><stop offset=".5" stop-color="#00EBFF"/><stop offset="1"/></linearGradient><linearGradient id="paint69_linear_87_9505" x1="265.476" y1="428.364" x2="265.476" y2="145.647" gradientUnits="userSpaceOnUse"><stop/><stop offset=".5" stop-color="#00EBFF"/><stop offset="1"/></linearGradient><linearGradient id="paint70_linear_87_9505" x1="382.377" y1="462.157" x2="382.377" y2="113.864" gradientUnits="userSpaceOnUse"><stop/><stop offset=".5" stop-color="#00EBFF"/><stop offset="1"/></linearGradient><linearGradient id="paint71_linear_87_9505" x1="430.64" y1="463.671" x2="430.64" y2="108.29" gradientUnits="userSpaceOnUse"><stop/><stop offset=".5" stop-color="#00EBFF"/><stop offset="1"/></linearGradient><linearGradient id="paint72_linear_87_9505" x1="332.708" y1="524.867" x2="332.708" y2="49.144" gradientUnits="userSpaceOnUse"><stop/><stop offset=".5" stop-color="#00EBFF"/><stop offset="1"/></linearGradient><linearGradient id="paint73_linear_87_9505" x1="380.529" y1="383.862" x2="380.529" y2="190.149" gradientUnits="userSpaceOnUse"><stop/><stop offset=".5" stop-color="#00EBFF"/><stop offset="1"/></linearGradient><linearGradient id="paint74_linear_87_9505" x1="408.314" y1="356.602" x2="408.314" y2="217.409" gradientUnits="userSpaceOnUse"><stop/><stop offset=".5" stop-color="#00EBFF"/><stop offset="1"/></linearGradient><linearGradient id="paint75_linear_87_9505" x1="456.79" y1="559.6" x2="456.79" y2="14.411" gradientUnits="userSpaceOnUse"><stop/><stop offset=".5" stop-color="#00EBFF"/><stop offset="1"/></linearGradient><linearGradient id="paint76_linear_87_9505" x1="568.065" y1="372.25" x2="568.065" y2="201.761" gradientUnits="userSpaceOnUse"><stop/><stop offset=".5" stop-color="#00EBFF"/><stop offset="1"/></linearGradient><linearGradient id="paint77_linear_87_9505" x1="617.565" y1="411.897" x2="617.565" y2="162.114" gradientUnits="userSpaceOnUse"><stop/><stop offset=".5" stop-color="#00EBFF"/><stop offset="1"/></linearGradient><linearGradient id="paint78_linear_87_9505" x1="740.278" y1="504.611" x2="740.278" y2="71.896" gradientUnits="userSpaceOnUse"><stop/><stop offset=".5" stop-color="#00EBFF"/><stop offset="1"/></linearGradient><linearGradient id="paint79_linear_87_9505" x1="790.374" y1="503.092" x2="790.374" y2="68.411" gradientUnits="userSpaceOnUse"><stop/><stop offset=".5" stop-color="#00EBFF"/><stop offset="1"/></linearGradient><linearGradient id="paint80_linear_87_9505" x1="438.1" y1="486.786" x2="438.1" y2="87.225" gradientUnits="userSpaceOnUse"><stop/><stop offset=".5" stop-color="#00EBFF"/><stop offset="1"/></linearGradient><linearGradient id="paint81_linear_87_9505" x1="486.803" y1="450.883" x2="486.803" y2="123.128" gradientUnits="userSpaceOnUse"><stop/><stop offset=".5" stop-color="#00EBFF"/><stop offset="1"/></linearGradient><linearGradient id="paint82_linear_87_9505" x1="515.056" y1="539.691" x2="515.056" y2="34.32" gradientUnits="userSpaceOnUse"><stop/><stop offset=".5" stop-color="#00EBFF"/><stop offset="1"/></linearGradient><linearGradient id="paint83_linear_87_9505" x1="564.268" y1="385.924" x2="564.268" y2="188.087" gradientUnits="userSpaceOnUse"><stop/><stop offset=".5" stop-color="#00EBFF"/><stop offset="1"/></linearGradient><linearGradient id="paint84_linear_87_9505" x1="676.874" y1="460.465" x2="676.874" y2="113.546" gradientUnits="userSpaceOnUse"><stop/><stop offset=".5" stop-color="#00EBFF"/><stop offset="1"/></linearGradient><linearGradient id="paint85_linear_87_9505" x1="726.81" y1="540.557" x2="726.81" y2="33.454" gradientUnits="userSpaceOnUse"><stop/><stop offset=".5" stop-color="#00EBFF"/><stop offset="1"/></linearGradient><linearGradient id="paint86_linear_87_9505" x1="850.203" y1="367.949" x2="850.203" y2="206.991" gradientUnits="userSpaceOnUse"><stop/><stop offset=".5" stop-color="#00EBFF"/><stop offset="1"/></linearGradient><linearGradient id="paint87_linear_87_9505" x1="900.415" y1="367.047" x2="900.415" y2="206.036" gradientUnits="userSpaceOnUse"><stop/><stop offset=".5" stop-color="#00EBFF"/><stop offset="1"/></linearGradient><linearGradient id="paint88_linear_87_9505" x1="798.089" y1="574.011" x2="798.089" y2="0" gradientUnits="userSpaceOnUse"><stop/><stop offset=".5" stop-color="#00EBFF"/><stop offset="1"/></linearGradient><linearGradient id="paint89_linear_87_9505" x1="848.272" y1="394.473" x2="848.272" y2="179.537" gradientUnits="userSpaceOnUse"><stop/><stop offset=".5" stop-color="#00EBFF"/><stop offset="1"/></linearGradient><linearGradient id="paint90_linear_87_9505" x1="877.24" y1="467.39" x2="877.24" y2="106.621" gradientUnits="userSpaceOnUse"><stop/><stop offset=".5" stop-color="#00EBFF"/><stop offset="1"/></linearGradient><linearGradient id="paint91_linear_87_9505" x1="927.451" y1="393.899" x2="927.451" y2="180.112" gradientUnits="userSpaceOnUse"><stop/><stop offset=".5" stop-color="#00EBFF"/><stop offset="1"/></linearGradient><linearGradient id="paint92_linear_87_9505" x1="1041.19" y1="557.24" x2="1041.19" y2="16.771" gradientUnits="userSpaceOnUse"><stop/><stop offset=".5" stop-color="#00EBFF"/><stop offset="1"/></linearGradient><linearGradient id="paint93_linear_87_9505" x1="1091.13" y1="385.594" x2="1091.13" y2="188.417" gradientUnits="userSpaceOnUse"><stop/><stop offset=".5" stop-color="#00EBFF"/><stop offset="1"/></linearGradient><linearGradient id="paint94_linear_87_9505" x1="1213.22" y1="550.395" x2="1213.22" y2="26.638" gradientUnits="userSpaceOnUse"><stop/><stop offset=".5" stop-color="#00EBFF"/><stop offset="1"/></linearGradient><linearGradient id="paint95_linear_87_9505" x1="1262.37" y1="543.7" x2="1262.37" y2="27.332" gradientUnits="userSpaceOnUse"><stop/><stop offset=".5" stop-color="#00EBFF"/><stop offset="1"/></linearGradient><linearGradient id="paint96_linear_87_9505" x1="358.402" y1="425.907" x2="358.402" y2="148.104" gradientUnits="userSpaceOnUse"><stop/><stop offset=".5" stop-color="#00EBFF"/><stop offset="1"/></linearGradient><linearGradient id="paint97_linear_87_9505" x1="406.458" y1="500.454" x2="406.458" y2="73.558" gradientUnits="userSpaceOnUse"><stop/><stop offset=".5" stop-color="#00EBFF"/><stop offset="1"/></linearGradient><linearGradient id="paint98_linear_87_9505" x1="434.369" y1="487.014" x2="434.369" y2="86.997" gradientUnits="userSpaceOnUse"><stop/><stop offset=".5" stop-color="#00EBFF"/><stop offset="1"/></linearGradient><linearGradient id="paint99_linear_87_9505" x1="483.044" y1="558.849" x2="483.044" y2="15.162" gradientUnits="userSpaceOnUse"><stop/><stop offset=".5" stop-color="#00EBFF"/><stop offset="1"/></linearGradient><linearGradient id="paint100_linear_87_9505" x1="594.689" y1="480.056" x2="594.689" y2="93.955" gradientUnits="userSpaceOnUse"><stop/><stop offset=".5" stop-color="#00EBFF"/><stop offset="1"/></linearGradient><linearGradient id="paint101_linear_87_9505" x1="644.315" y1="487.543" x2="644.315" y2="86.468" gradientUnits="userSpaceOnUse"><stop/><stop offset=".5" stop-color="#00EBFF"/><stop offset="1"/></linearGradient><linearGradient id="paint102_linear_87_9505" x1="767.241" y1="493.593" x2="767.241" y2="82.788" gradientUnits="userSpaceOnUse"><stop/><stop offset=".5" stop-color="#00EBFF"/><stop offset="1"/></linearGradient><linearGradient id="paint103_linear_87_9505" x1="817.384" y1="491.938" x2="817.384" y2="79.695" gradientUnits="userSpaceOnUse"><stop/><stop offset=".5" stop-color="#00EBFF"/><stop offset="1"/></linearGradient><linearGradient id="paint104_linear_87_9505" x1="715.273" y1="374.388" x2="715.273" y2="199.623" gradientUnits="userSpaceOnUse"><stop/><stop offset=".5" stop-color="#00EBFF"/><stop offset="1"/></linearGradient><linearGradient id="paint105_linear_87_9505" x1="765.313" y1="536.266" x2="765.313" y2="37.745" gradientUnits="userSpaceOnUse"><stop/><stop offset=".5" stop-color="#00EBFF"/><stop offset="1"/></linearGradient><linearGradient id="paint106_linear_87_9505" x1="794.231" y1="393.964" x2="794.231" y2="180.048" gradientUnits="userSpaceOnUse"><stop/><stop offset=".5" stop-color="#00EBFF"/><stop offset="1"/></linearGradient><linearGradient id="paint107_linear_87_9505" x1="844.41" y1="467.414" x2="844.41" y2="106.597" gradientUnits="userSpaceOnUse"><stop/><stop offset=".5" stop-color="#00EBFF"/><stop offset="1"/></linearGradient><linearGradient id="paint108_linear_87_9505" x1="958.334" y1="488.599" x2="958.334" y2="85.412" gradientUnits="userSpaceOnUse"><stop/><stop offset=".5" stop-color="#00EBFF"/><stop offset="1"/></linearGradient><linearGradient id="paint109_linear_87_9505" x1="1008.47" y1="411.017" x2="1008.47" y2="162.994" gradientUnits="userSpaceOnUse"><stop/><stop offset=".5" stop-color="#00EBFF"/><stop offset="1"/></linearGradient><linearGradient id="paint110_linear_87_9505" x1="1131.33" y1="471.75" x2="1131.33" y2="104.38" gradientUnits="userSpaceOnUse"><stop/><stop offset=".5" stop-color="#00EBFF"/><stop offset="1"/></linearGradient><linearGradient id="paint111_linear_87_9505" x1="1180.92" y1="467.692" x2="1180.92" y2="104.222" gradientUnits="userSpaceOnUse"><stop/><stop offset=".5" stop-color="#00EBFF"/><stop offset="1"/></linearGradient><linearGradient id="paint112_linear_87_9505" x1="825.104" y1="416.165" x2="825.104" y2="157.846" gradientUnits="userSpaceOnUse"><stop/><stop offset=".5" stop-color="#00EBFF"/><stop offset="1"/></linearGradient><linearGradient id="paint113_linear_87_9505" x1="875.308" y1="444.592" x2="875.308" y2="129.419" gradientUnits="userSpaceOnUse"><stop/><stop offset=".5" stop-color="#00EBFF"/><stop offset="1"/></linearGradient><linearGradient id="paint114_linear_87_9505" x1="904.277" y1="388.728" x2="904.277" y2="185.283" gradientUnits="userSpaceOnUse"><stop/><stop offset=".5" stop-color="#00EBFF"/><stop offset="1"/></linearGradient><linearGradient id="paint115_linear_87_9505" x1="954.474" y1="489.942" x2="954.474" y2="84.069" gradientUnits="userSpaceOnUse"><stop/><stop offset=".5" stop-color="#00EBFF"/><stop offset="1"/></linearGradient><linearGradient id="paint116_linear_87_9505" x1="1068.1" y1="505.341" x2="1068.1" y2="68.669" gradientUnits="userSpaceOnUse"><stop/><stop offset=".5" stop-color="#00EBFF"/><stop offset="1"/></linearGradient><linearGradient id="paint117_linear_87_9505" x1="1117.94" y1="482.891" x2="1117.94" y2="91.12" gradientUnits="userSpaceOnUse"><stop/><stop offset=".5" stop-color="#00EBFF"/><stop offset="1"/></linearGradient><linearGradient id="paint118_linear_87_9505" x1="1239.72" y1="368.49" x2="1239.72" y2="206.456" gradientUnits="userSpaceOnUse"><stop/><stop offset=".5" stop-color="#00EBFF"/><stop offset="1"/></linearGradient><linearGradient id="paint119_linear_87_9505" x1="1288.71" y1="366.324" x2="1288.71" y2="206.767" gradientUnits="userSpaceOnUse"><stop/><stop offset=".5" stop-color="#00EBFF"/><stop offset="1"/></linearGradient><linearGradient id="paint120_linear_87_9505" x1="1188.53" y1="482.198" x2="1188.53" y2="91.813" gradientUnits="userSpaceOnUse"><stop/><stop offset=".5" stop-color="#00EBFF"/><stop offset="1"/></linearGradient><linearGradient id="paint121_linear_87_9505" x1="1237.83" y1="478.976" x2="1237.83" y2="95.034" gradientUnits="userSpaceOnUse"><stop/><stop offset=".5" stop-color="#00EBFF"/><stop offset="1"/></linearGradient><linearGradient id="paint122_linear_87_9505" x1="1266.14" y1="372.078" x2="1266.14" y2="201.933" gradientUnits="userSpaceOnUse"><stop/><stop offset=".5" stop-color="#00EBFF"/><stop offset="1"/></linearGradient><linearGradient id="paint123_linear_87_9505" x1="1314.95" y1="519.565" x2="1314.95" y2="54.445" gradientUnits="userSpaceOnUse"><stop/><stop offset=".5" stop-color="#00EBFF"/><stop offset="1"/></linearGradient><linearGradient id="paint124_linear_87_9505" x1="1424.3" y1="425.071" x2="1424.3" y2="148.94" gradientUnits="userSpaceOnUse"><stop/><stop offset=".5" stop-color="#00EBFF"/><stop offset="1"/></linearGradient><linearGradient id="paint125_linear_87_9505" x1="1471.76" y1="527.743" x2="1471.76" y2="46.268" gradientUnits="userSpaceOnUse"><stop/><stop offset=".5" stop-color="#00EBFF"/><stop offset="1"/></linearGradient><linearGradient id="paint126_linear_87_9505" x1="1586.36" y1="443.302" x2="1586.36" y2="132.502" gradientUnits="userSpaceOnUse"><stop/><stop offset=".5" stop-color="#00EBFF"/><stop offset="1"/></linearGradient><linearGradient id="paint127_linear_87_9505" x1="1631.91" y1="436.04" x2="1631.91" y2="136.242" gradientUnits="userSpaceOnUse"><stop/><stop offset=".5" stop-color="#00EBFF"/><stop offset="1"/></linearGradient></defs></svg>