<svg width="1920" height="1077" viewBox="0 0 1920 1077" fill="none" xmlns="http://www.w3.org/2000/svg">
<g style="mix-blend-mode:screen" opacity="0.06" clip-path="url(#clip0_117_20278)">
<path d="M1968 918.858V153.579C1832.03 194.99 1731.51 352.48 1733.46 539.316C1735.09 723.218 1834.63 876.469 1968 918.858Z" fill="url(#paint0_radial_117_20278)"/>
<path d="M1863.91 180.969H1967.02V179.339H1864.56L1720.78 35.2173L1719.8 36.5216L1863.91 180.969Z" fill="#969696"/>
<path d="M1720.45 42.3905C1723.86 42.3905 1726.63 39.6168 1726.63 36.1953C1726.63 32.7737 1723.86 30 1720.45 30C1717.04 30 1714.27 32.7737 1714.27 36.1953C1714.27 39.6168 1717.04 42.3905 1720.45 42.3905Z" fill="#969696"/>
<path d="M1635.22 1071.78L1727.28 979.507H1911.07L1967.02 923.097V920.814L1910.42 977.876H1726.63L1634.57 1070.15H1468.35V1071.78H1635.22Z" fill="#969696"/>
<path d="M1468.67 1064.61C1465.42 1064.61 1462.49 1067.22 1462.49 1070.81C1462.49 1074.07 1465.1 1077 1468.67 1077C1471.93 1077 1474.85 1074.39 1474.85 1070.81C1474.85 1067.54 1471.93 1064.61 1468.67 1064.61Z" fill="#969696"/>
<path d="M1851.87 283.354L1898.39 236.726H1967.02V235.096H1897.74L1851.22 281.723H1499.58V283.354H1851.87Z" fill="#969696"/>
<path d="M1499.9 288.571C1503.32 288.571 1506.08 285.797 1506.08 282.376C1506.08 278.954 1503.32 276.18 1499.9 276.18C1496.49 276.18 1493.72 278.954 1493.72 282.376C1493.72 285.797 1496.49 288.571 1499.9 288.571Z" fill="#969696"/>
<path d="M1861.95 709.197L1932.54 779.953H1967.02V778.323H1933.19L1862.6 707.567H1650.51V709.197H1861.95Z" fill="#969696"/>
<path d="M1650.84 702.349C1647.59 702.349 1644.66 704.958 1644.66 708.545C1644.66 711.805 1647.26 714.74 1650.84 714.74C1654.09 714.74 1657.02 712.131 1657.02 708.545C1657.02 704.958 1654.42 702.349 1650.84 702.349Z" fill="#969696"/>
<path d="M1862.6 340.415L1929.94 272.593H1967.02V270.963H1929.29L1861.95 338.785H1597.17V340.415H1862.6Z" fill="#969696"/>
<path d="M1597.49 345.632C1594.24 345.632 1591.31 343.024 1591.31 339.437C1591.31 336.176 1593.91 333.242 1597.49 333.242C1600.74 333.242 1603.67 335.85 1603.67 339.437C1603.67 343.024 1601.07 345.632 1597.49 345.632Z" fill="#969696"/>
<path d="M1618.31 701.697L1687.6 632.571H1967.02V630.941H1686.95L1617.33 700.719L1618.31 701.697Z" fill="#969696"/>
<path d="M1613.76 696.48C1611.48 698.763 1611.48 702.675 1613.76 705.284C1616.03 707.566 1619.94 707.566 1622.54 705.284C1624.82 703.001 1624.82 699.089 1622.54 696.48C1619.94 694.198 1616.03 694.198 1613.76 696.48Z" fill="#969696"/>
<path d="M1535.68 396.825H1834.3L1906.19 324.438H1967.02V322.808H1905.54L1833.65 395.195H1536.34L1448.51 307.157L1447.2 308.135L1535.68 396.825Z" fill="#969696"/>
<path d="M1452.41 303.57C1450.13 301.288 1446.23 301.288 1443.63 303.57C1441.35 305.852 1441.35 309.765 1443.63 312.374C1445.9 314.656 1449.81 314.656 1452.41 312.374C1454.69 309.765 1454.69 305.852 1452.41 303.57Z" fill="#969696"/>
<path d="M1802.1 464.321L1911.4 354.763H1967.02V353.132H1910.75L1800.8 463.343L1802.1 464.321Z" fill="#969696"/>
<path d="M1797.55 459.43C1795.27 461.713 1795.27 465.625 1797.55 468.234C1799.82 470.516 1803.73 470.516 1806.33 468.234C1808.61 465.951 1808.61 462.039 1806.33 459.43C1803.73 456.821 1799.82 456.821 1797.55 459.43Z" fill="#969696"/>
<path d="M1942.95 570.619L1967.02 595.074V592.791L1943.6 568.988H1521.05V570.619H1942.95Z" fill="#969696"/>
<path d="M1521.37 563.771C1518.12 563.771 1515.19 566.38 1515.19 569.966C1515.19 573.553 1517.79 576.161 1521.37 576.161C1524.62 576.161 1527.55 573.553 1527.55 569.966C1527.55 566.38 1524.95 563.771 1521.37 563.771Z" fill="#969696"/>
<path d="M1967.02 407.585H1909.12V409.215H1967.02V407.585Z" fill="#969696"/>
<path d="M1909.45 402.368C1906.19 402.368 1903.27 404.976 1903.27 408.563C1903.27 411.824 1905.87 414.759 1909.45 414.759C1912.7 414.759 1915.63 412.15 1915.63 408.563C1915.63 405.303 1912.7 402.368 1909.45 402.368Z" fill="#969696"/>
<path d="M1967.02 439.539H1893.18V441.17H1967.02V439.539Z" fill="#969696"/>
<path d="M1893.51 446.387C1896.92 446.387 1899.69 443.613 1899.69 440.192C1899.69 436.77 1896.92 433.996 1893.51 433.996C1890.09 433.996 1887.33 436.77 1887.33 440.192C1887.33 443.613 1890.09 446.387 1893.51 446.387Z" fill="#969696"/>
<path d="M1596.84 727.782H1526.58V729.413H1596.84V727.782Z" fill="#969696"/>
<path d="M1596.51 722.24C1599.77 722.24 1602.7 724.848 1602.7 728.435C1602.7 731.695 1600.09 734.63 1596.51 734.63C1593.26 734.63 1590.33 732.021 1590.33 728.435C1590.33 725.174 1592.94 722.24 1596.51 722.24Z" fill="#969696"/>
<path d="M1526.9 722.24C1523.65 722.24 1520.72 724.848 1520.72 728.435C1520.72 731.695 1523.32 734.63 1526.9 734.63C1530.15 734.63 1533.08 732.021 1533.08 728.435C1532.76 725.174 1530.15 722.24 1526.9 722.24Z" fill="#969696"/>
<path d="M1939.05 667.134L1967.02 695.176V692.893L1939.7 665.504H1711.34V667.134H1939.05Z" fill="#969696"/>
<path d="M1711.67 672.351C1715.08 672.351 1717.85 669.578 1717.85 666.156C1717.85 662.734 1715.08 659.961 1711.67 659.961C1708.26 659.961 1705.49 662.734 1705.49 666.156C1705.49 669.578 1708.26 672.351 1711.67 672.351Z" fill="#969696"/>
<path d="M1635.88 1030.05L1753.63 912.01H1888.3L1965.07 835.385H1967.02V833.754H1964.42L1887.65 910.38H1752.98L1635.22 1028.42H1481.69V1030.05H1635.88Z" fill="#969696"/>
<path d="M1481.69 1022.87C1478.43 1022.87 1475.51 1025.48 1475.51 1029.07C1475.51 1032.33 1478.11 1035.26 1481.69 1035.26C1485.26 1035.26 1487.87 1032.66 1487.87 1029.07C1487.87 1025.81 1485.26 1022.87 1481.69 1022.87Z" fill="#969696"/>
<path d="M1475.18 849.405L1565.94 758.433H1837.56L1890.25 811.256H1967.02V809.625H1890.91L1838.21 756.802H1565.29L1473.88 848.427L1475.18 849.405Z" fill="#969696"/>
<path d="M1470.3 844.188C1468.02 846.47 1468.02 850.383 1470.3 852.992C1472.58 855.274 1476.48 855.274 1479.08 852.992C1481.36 850.709 1481.36 846.796 1479.08 844.188C1476.81 841.905 1472.9 841.905 1470.3 844.188Z" fill="#969696"/>
<path d="M1721.1 852.014H1876.92V853.644H1721.75L1626.77 949.182H1499.25L1454.04 904.185L1455.34 902.88L1499.9 947.551H1626.12L1721.1 852.014Z" fill="#969696"/>
<path d="M1876.59 859.187C1880.01 859.187 1882.77 856.414 1882.77 852.992C1882.77 849.571 1880.01 846.797 1876.59 846.797C1873.18 846.797 1870.41 849.571 1870.41 852.992C1870.41 856.414 1873.18 859.187 1876.59 859.187Z" fill="#969696"/>
<path d="M1459.24 899.294C1456.96 897.012 1453.06 897.012 1450.46 899.294C1448.18 901.577 1448.18 905.489 1450.46 908.098C1452.73 910.38 1456.64 910.38 1459.24 908.098C1461.52 905.489 1461.52 901.903 1459.24 899.294Z" fill="#969696"/>
<path d="M1662.87 812.56H1823.89V814.19H1663.85L1590.98 886.903H1526.58V885.273H1590.33L1662.87 812.56Z" fill="#969696"/>
<path d="M1823.57 807.017C1826.82 807.017 1829.75 809.626 1829.75 813.212C1829.75 816.473 1827.15 819.408 1823.57 819.408C1819.99 819.408 1817.39 816.799 1817.39 813.212C1817.71 809.952 1820.32 807.017 1823.57 807.017Z" fill="#969696"/>
<path d="M1526.9 880.056C1523.65 880.056 1520.72 882.665 1520.72 886.252C1520.72 889.512 1523.32 892.447 1526.9 892.447C1530.15 892.447 1533.08 889.838 1533.08 886.252C1532.76 882.665 1530.15 880.056 1526.9 880.056Z" fill="#969696"/>
<path d="M1575.7 611.051H1884.72V612.682H1576.35L1459.24 730.392L1458.26 729.087L1575.7 611.051Z" fill="#969696"/>
<path d="M1884.4 605.834C1887.65 605.834 1890.58 608.442 1890.58 612.029C1890.58 615.29 1887.98 618.224 1884.4 618.224C1881.15 618.224 1878.22 615.616 1878.22 612.029C1878.54 608.442 1881.15 605.834 1884.4 605.834Z" fill="#969696"/>
<path d="M1454.69 725.174C1452.41 727.457 1452.41 731.369 1454.69 733.978C1456.96 736.26 1460.87 736.26 1463.47 733.978C1465.75 731.696 1465.75 727.783 1463.47 725.174C1460.87 722.566 1456.96 722.566 1454.69 725.174Z" fill="#969696"/>
<path d="M1943.93 532.469L1967.02 555.946V553.663L1944.58 530.839H1494.7V532.469H1943.93Z" fill="#969696"/>
<path d="M1495.02 538.012C1498.44 538.012 1501.2 535.238 1501.2 531.817C1501.2 528.395 1498.44 525.621 1495.02 525.621C1491.61 525.621 1488.84 528.395 1488.84 531.817C1488.84 535.238 1491.61 538.012 1495.02 538.012Z" fill="#969696"/>
<path d="M1940.68 493.34L1967.02 519.752V517.143L1941.65 491.71H1470.95V493.34H1940.68Z" fill="#969696"/>
<path d="M1471.28 498.558C1474.69 498.558 1477.46 495.784 1477.46 492.362C1477.46 488.941 1474.69 486.167 1471.28 486.167C1467.86 486.167 1465.1 488.941 1465.1 492.362C1465.1 495.784 1467.86 498.558 1471.28 498.558Z" fill="#969696"/>
<path d="M1824.22 215.532H1967.02V213.901H1824.87L1698.33 87.0615L1697.36 88.0397L1824.22 215.532Z" fill="#969696"/>
<path d="M1698.01 93.9091C1701.42 93.9091 1704.19 91.1354 1704.19 87.7138C1704.19 84.2923 1701.42 81.5186 1698.01 81.5186C1694.59 81.5186 1691.83 84.2923 1691.83 87.7138C1691.83 91.1354 1694.59 93.9091 1698.01 93.9091Z" fill="#969696"/>
<path d="M1461.19 133.689H1686.95L1768.92 215.858L1767.62 216.836L1686.3 135.32H1461.19V133.689Z" fill="#969696"/>
<path d="M1772.5 211.946C1774.78 214.228 1774.78 218.141 1772.5 220.749C1770.22 223.032 1766.32 223.032 1763.72 220.749C1761.44 218.467 1761.44 214.554 1763.72 211.946C1765.99 209.337 1769.9 209.337 1772.5 211.946Z" fill="#969696"/>
<path d="M1461.19 140.537C1464.61 140.537 1467.37 137.763 1467.37 134.342C1467.37 130.92 1464.61 128.146 1461.19 128.146C1457.78 128.146 1455.01 130.92 1455.01 134.342C1455.01 137.763 1457.78 140.537 1461.19 140.537Z" fill="#969696"/>
</g>
<g style="mix-blend-mode:screen" opacity="0.06" clip-path="url(#clip1_117_20278)">
<path d="M-47.9999 918.858V153.579C87.9729 194.99 188.489 352.48 186.537 539.316C184.91 723.218 85.3705 876.469 -47.9999 918.858Z" fill="url(#paint1_radial_117_20278)"/>
<path d="M56.0941 180.969H-47.024V179.339H55.4435L199.223 35.2173L200.199 36.5216L56.0941 180.969Z" fill="#969696"/>
<path d="M199.549 42.3905C196.135 42.3905 193.368 39.6168 193.368 36.1953C193.368 32.7737 196.135 30 199.549 30C202.962 30 205.729 32.7737 205.729 36.1953C205.729 39.6168 202.962 42.3905 199.549 42.3905Z" fill="#969696"/>
<path d="M284.776 1071.78L192.717 979.507H8.92648L-47.024 923.097V920.814L9.57706 977.876H193.368L285.426 1070.15H451.651V1071.78H284.776Z" fill="#969696"/>
<path d="M451.326 1064.61C454.579 1064.61 457.507 1067.22 457.507 1070.81C457.507 1074.07 454.904 1077 451.326 1077C448.073 1077 445.145 1074.39 445.145 1070.81C445.145 1067.54 448.073 1064.61 451.326 1064.61Z" fill="#969696"/>
<path d="M68.1299 283.354L21.6129 236.726H-47.024V235.096H22.2635L68.7805 281.723H420.423V283.354H68.1299Z" fill="#969696"/>
<path d="M420.098 288.571C416.684 288.571 413.917 285.797 413.917 282.376C413.917 278.954 416.684 276.18 420.098 276.18C423.511 276.18 426.278 278.954 426.278 282.376C426.278 285.797 423.511 288.571 420.098 288.571Z" fill="#969696"/>
<path d="M58.0458 709.197L-12.5429 779.953H-47.024V778.323H-13.1935L57.3952 707.567H269.487V709.197H58.0458Z" fill="#969696"/>
<path d="M269.161 702.349C272.414 702.349 275.342 704.958 275.342 708.545C275.342 711.805 272.74 714.74 269.161 714.74C265.908 714.74 262.981 712.131 262.981 708.545C262.981 704.958 265.583 702.349 269.161 702.349Z" fill="#969696"/>
<path d="M57.3952 340.415L-9.94058 272.593H-47.024V270.963H-9.29001L58.0458 338.785H322.835V340.415H57.3952Z" fill="#969696"/>
<path d="M322.51 345.632C325.763 345.632 328.69 343.024 328.69 339.437C328.69 336.176 326.088 333.242 322.51 333.242C319.257 333.242 316.329 335.85 316.329 339.437C316.329 343.024 318.931 345.632 322.51 345.632Z" fill="#969696"/>
<path d="M301.691 701.697L232.403 632.571H-47.024V630.941H233.054L302.667 700.719L301.691 701.697Z" fill="#969696"/>
<path d="M306.245 696.48C308.522 698.763 308.522 702.675 306.245 705.284C303.968 707.566 300.064 707.566 297.462 705.284C295.185 703.001 295.185 699.089 297.462 696.48C300.064 694.198 303.968 694.198 306.245 696.48Z" fill="#969696"/>
<path d="M384.315 396.825H85.6958L13.8059 324.438H-47.024V322.808H14.4565L86.3464 395.195H383.665L471.494 307.157L472.795 308.135L384.315 396.825Z" fill="#969696"/>
<path d="M467.591 303.57C469.868 301.288 473.771 301.288 476.374 303.57C478.651 305.852 478.651 309.765 476.374 312.374C474.097 314.656 470.193 314.656 467.591 312.374C465.314 309.765 465.314 305.852 467.591 303.57Z" fill="#969696"/>
<path d="M117.9 464.321L8.60114 354.763H-47.024V353.132H9.25172L119.201 463.343L117.9 464.321Z" fill="#969696"/>
<path d="M122.454 459.43C124.731 461.713 124.731 465.625 122.454 468.234C120.177 470.516 116.273 470.516 113.671 468.234C111.394 465.951 111.394 462.039 113.671 459.43C116.273 456.821 120.177 456.821 122.454 459.43Z" fill="#969696"/>
<path d="M-22.9524 570.619L-47.0241 595.074V592.791L-23.603 568.988H398.954V570.619H-22.9524Z" fill="#969696"/>
<path d="M398.628 563.771C401.881 563.771 404.809 566.38 404.809 569.966C404.809 573.553 402.207 576.161 398.628 576.161C395.375 576.161 392.448 573.553 392.448 569.966C392.448 566.38 395.05 563.771 398.628 563.771Z" fill="#969696"/>
<path d="M-47.024 407.585H10.8783V409.215H-47.024V407.585Z" fill="#969696"/>
<path d="M10.553 402.368C13.8059 402.368 16.7335 404.976 16.7335 408.563C16.7335 411.824 14.1312 414.759 10.553 414.759C7.30004 414.759 4.37238 412.15 4.37238 408.563C4.37238 405.303 7.30004 402.368 10.553 402.368Z" fill="#969696"/>
<path d="M-47.024 439.539H26.8177V441.17H-47.024V439.539Z" fill="#969696"/>
<path d="M26.4923 446.387C23.0789 446.387 20.3118 443.613 20.3118 440.192C20.3118 436.77 23.0789 433.996 26.4923 433.996C29.9058 433.996 32.673 436.77 32.673 440.192C32.673 443.613 29.9058 446.387 26.4923 446.387Z" fill="#969696"/>
<path d="M323.16 727.782H393.424V729.413H323.16V727.782Z" fill="#969696"/>
<path d="M323.486 722.24C320.233 722.24 317.305 724.848 317.305 728.435C317.305 731.695 319.907 734.63 323.486 734.63C326.738 734.63 329.666 732.021 329.666 728.435C329.666 725.174 327.064 722.24 323.486 722.24Z" fill="#969696"/>
<path d="M393.098 722.24C396.351 722.24 399.279 724.848 399.279 728.435C399.279 731.695 396.677 734.63 393.098 734.63C389.846 734.63 386.918 732.021 386.918 728.435C387.243 725.174 389.846 722.24 393.098 722.24Z" fill="#969696"/>
<path d="M-19.0489 667.134L-47.0241 695.176V692.893L-19.6994 665.504H208.657V667.134H-19.0489Z" fill="#969696"/>
<path d="M208.331 672.351C204.918 672.351 202.151 669.578 202.151 666.156C202.151 662.734 204.918 659.961 208.331 659.961C211.745 659.961 214.512 662.734 214.512 666.156C214.512 669.578 211.745 672.351 208.331 672.351Z" fill="#969696"/>
<path d="M284.125 1030.05L166.369 912.01H31.697L-45.0723 835.385H-47.024V833.754H-44.4217L32.3476 910.38H167.019L284.776 1028.42H438.314V1030.05H284.125Z" fill="#969696"/>
<path d="M438.314 1022.87C441.567 1022.87 444.495 1025.48 444.495 1029.07C444.495 1032.33 441.892 1035.26 438.314 1035.26C434.736 1035.26 432.134 1032.66 432.134 1029.07C432.134 1025.81 434.736 1022.87 438.314 1022.87Z" fill="#969696"/>
<path d="M444.82 849.405L354.063 758.433H82.4428L29.7452 811.256H-47.0241V809.625H29.0946L81.7922 756.802H354.714L446.121 848.427L444.82 849.405Z" fill="#969696"/>
<path d="M449.699 844.188C451.977 846.47 451.977 850.383 449.699 852.992C447.422 855.274 443.519 855.274 440.917 852.992C438.639 850.709 438.639 846.796 440.917 844.188C443.194 841.905 447.097 841.905 449.699 844.188Z" fill="#969696"/>
<path d="M198.898 852.014H43.0824V853.644H198.247L293.233 949.182H420.748L465.964 904.185L464.663 902.88L420.098 947.551H293.884L198.898 852.014Z" fill="#969696"/>
<path d="M43.4076 859.187C39.9941 859.187 37.227 856.414 37.227 852.992C37.227 849.571 39.9941 846.797 43.4076 846.797C46.821 846.797 49.5882 849.571 49.5882 852.992C49.5882 856.414 46.821 859.187 43.4076 859.187Z" fill="#969696"/>
<path d="M460.76 899.294C463.037 897.012 466.94 897.012 469.542 899.294C471.82 901.577 471.82 905.489 469.542 908.098C467.265 910.38 463.362 910.38 460.76 908.098C458.483 905.489 458.483 901.903 460.76 899.294Z" fill="#969696"/>
<path d="M257.126 812.56H96.1053V814.19H256.15L329.016 886.903H393.424V885.273H329.666L257.126 812.56Z" fill="#969696"/>
<path d="M96.4305 807.017C93.1776 807.017 90.25 809.626 90.25 813.212C90.25 816.473 92.8523 819.408 96.4305 819.408C100.009 819.408 102.611 816.799 102.611 813.212C102.286 809.952 99.6834 807.017 96.4305 807.017Z" fill="#969696"/>
<path d="M393.098 880.056C396.351 880.056 399.279 882.665 399.279 886.252C399.279 889.512 396.677 892.447 393.098 892.447C389.846 892.447 386.918 889.838 386.918 886.252C387.243 882.665 389.846 880.056 393.098 880.056Z" fill="#969696"/>
<path d="M344.304 611.051H35.2752V612.682H343.654L460.759 730.392L461.735 729.087L344.304 611.051Z" fill="#969696"/>
<path d="M35.6006 605.834C32.3476 605.834 29.42 608.442 29.42 612.029C29.42 615.29 32.0224 618.224 35.6006 618.224C38.8536 618.224 41.7812 615.616 41.7812 612.029C41.4559 608.442 38.8536 605.834 35.6006 605.834Z" fill="#969696"/>
<path d="M465.314 725.174C467.591 727.457 467.591 731.369 465.314 733.978C463.036 736.26 459.133 736.26 456.531 733.978C454.254 731.696 454.254 727.783 456.531 725.174C459.133 722.566 463.036 722.566 465.314 725.174Z" fill="#969696"/>
<path d="M-23.9282 532.469L-47.024 555.946V553.663L-24.5788 530.839H425.303V532.469H-23.9282Z" fill="#969696"/>
<path d="M424.977 538.012C421.564 538.012 418.797 535.238 418.797 531.817C418.797 528.395 421.564 525.621 424.977 525.621C428.391 525.621 431.158 528.395 431.158 531.817C431.158 535.238 428.391 538.012 424.977 538.012Z" fill="#969696"/>
<path d="M-20.6753 493.34L-47.0241 519.752V517.143L-21.6512 491.71H449.049V493.34H-20.6753Z" fill="#969696"/>
<path d="M448.724 498.558C445.31 498.558 442.543 495.784 442.543 492.362C442.543 488.941 445.31 486.167 448.724 486.167C452.137 486.167 454.904 488.941 454.904 492.362C454.904 495.784 452.137 498.558 448.724 498.558Z" fill="#969696"/>
<path d="M95.7798 215.532H-47.0241V213.901H95.1293L221.669 87.0615L222.644 88.0397L95.7798 215.532Z" fill="#969696"/>
<path d="M221.994 93.9091C218.58 93.9091 215.813 91.1354 215.813 87.7138C215.813 84.2923 218.58 81.5186 221.994 81.5186C225.407 81.5186 228.174 84.2923 228.174 87.7138C228.174 91.1354 225.407 93.9091 221.994 93.9091Z" fill="#969696"/>
<path d="M458.808 133.689H233.054L151.08 215.858L152.381 216.836L233.704 135.32H458.808V133.689Z" fill="#969696"/>
<path d="M147.502 211.946C145.224 214.228 145.224 218.141 147.502 220.749C149.779 223.032 153.682 223.032 156.284 220.749C158.562 218.467 158.562 214.554 156.284 211.946C154.007 209.337 150.104 209.337 147.502 211.946Z" fill="#969696"/>
<path d="M458.808 140.537C455.394 140.537 452.627 137.763 452.627 134.342C452.627 130.92 455.394 128.146 458.808 128.146C462.221 128.146 464.988 130.92 464.988 134.342C464.988 137.763 462.221 140.537 458.808 140.537Z" fill="#969696"/>
</g>
<g opacity="0.8">
<g opacity="0.86" filter="url(#filter0_d_117_20278)">
<circle cx="92.1451" cy="94.2178" r="5.9" transform="rotate(131 92.1451 94.2178)" fill="url(#paint2_linear_117_20278)"/>
</g>
<g opacity="0.79" filter="url(#filter1_d_117_20278)">
<circle cx="474.5" cy="86.2172" r="4.2" transform="rotate(25 474.5 86.2172)" fill="url(#paint3_linear_117_20278)"/>
</g>
<g opacity="0.77" filter="url(#filter2_d_117_20278)">
<circle cx="1095.07" cy="7.39448" r="4.45" transform="rotate(166 1095.07 7.39448)" fill="url(#paint4_linear_117_20278)"/>
</g>
<g opacity="0.73" filter="url(#filter3_d_117_20278)">
<circle cx="1380.49" cy="11.4075" r="3.25" transform="rotate(-74 1380.49 11.4075)" fill="url(#paint5_linear_117_20278)"/>
</g>
<g opacity="0.94" filter="url(#filter4_d_117_20278)">
<circle cx="1715.03" cy="23.3935" r="4.6" transform="rotate(88 1715.03 23.3935)" fill="url(#paint6_linear_117_20278)"/>
</g>
<g opacity="0.81" filter="url(#filter5_d_117_20278)">
<circle cx="247.947" cy="214.602" r="3.25" transform="rotate(-58 247.947 214.602)" fill="url(#paint7_linear_117_20278)"/>
</g>
<g opacity="0.84" filter="url(#filter6_d_117_20278)">
<circle cx="576.126" cy="257.473" r="4.95" transform="rotate(-63 576.126 257.473)" fill="url(#paint8_linear_117_20278)"/>
</g>
<g opacity="0.76" filter="url(#filter7_d_117_20278)">
<circle cx="1250.29" cy="397.877" r="4.4" transform="rotate(142 1250.29 397.877)" fill="url(#paint9_linear_117_20278)"/>
</g>
<g opacity="0.9" filter="url(#filter8_d_117_20278)">
<circle cx="1168.23" cy="265.444" r="3.75" transform="rotate(172 1168.23 265.444)" fill="url(#paint10_linear_117_20278)"/>
</g>
<g opacity="0.86" filter="url(#filter9_d_117_20278)">
<circle cx="1886.52" cy="213.128" r="5.35" transform="rotate(37 1886.52 213.128)" fill="url(#paint11_linear_117_20278)"/>
</g>
<g opacity="0.73" filter="url(#filter10_d_117_20278)">
<circle cx="86.5067" cy="465.213" r="3.65" transform="rotate(151 86.5067 465.213)" fill="url(#paint12_linear_117_20278)"/>
</g>
<g opacity="0.84" filter="url(#filter11_d_117_20278)">
<circle cx="525.052" cy="619.579" r="5.95" transform="rotate(-102 525.052 619.579)" fill="url(#paint13_linear_117_20278)"/>
</g>
<g opacity="0.81" filter="url(#filter12_d_117_20278)">
<circle cx="860.286" cy="471.579" r="5.45" transform="rotate(-86 860.286 471.579)" fill="url(#paint14_linear_117_20278)"/>
</g>
<g opacity="0.97" filter="url(#filter13_d_117_20278)">
<circle cx="1372.33" cy="550.958" r="4.35" transform="rotate(132 1372.33 550.958)" fill="url(#paint15_linear_117_20278)"/>
</g>
<g opacity="0.99" filter="url(#filter14_d_117_20278)">
<circle cx="1829.87" cy="548.928" r="4.45" transform="rotate(92 1829.87 548.928)" fill="url(#paint16_linear_117_20278)"/>
</g>
<g opacity="0.83" filter="url(#filter15_d_117_20278)">
<circle cx="117.132" cy="634.21" r="4.55" transform="rotate(-138 117.132 634.21)" fill="url(#paint17_linear_117_20278)"/>
</g>
<g opacity="0.84" filter="url(#filter16_d_117_20278)">
<circle cx="427.798" cy="705.401" r="5.25" transform="rotate(-148 427.798 705.401)" fill="url(#paint18_linear_117_20278)"/>
</g>
<g opacity="0.93" filter="url(#filter17_d_117_20278)">
<circle cx="1117.77" cy="732.596" r="5.65" transform="rotate(50 1117.77 732.596)" fill="url(#paint19_linear_117_20278)"/>
</g>
<g opacity="0.97" filter="url(#filter18_d_117_20278)">
<circle cx="1437.38" cy="715.952" r="3.4" transform="rotate(-175 1437.38 715.952)" fill="url(#paint20_linear_117_20278)"/>
</g>
<g opacity="0.79" filter="url(#filter19_d_117_20278)">
<circle cx="1690.25" cy="741.169" r="5.1" transform="rotate(-65 1690.25 741.169)" fill="url(#paint21_linear_117_20278)"/>
</g>
<g opacity="0.72" filter="url(#filter20_d_117_20278)">
<circle cx="31.0317" cy="982.667" r="4.6" transform="rotate(67 31.0317 982.667)" fill="url(#paint22_linear_117_20278)"/>
</g>
<g opacity="0.82" filter="url(#filter21_d_117_20278)">
<circle cx="536.214" cy="1063.37" r="5" transform="rotate(93 536.214 1063.37)" fill="url(#paint23_linear_117_20278)"/>
</g>
<g opacity="0.94" filter="url(#filter22_d_117_20278)">
<circle cx="855.651" cy="1039.06" r="5.8" transform="rotate(-49 855.651 1039.06)" fill="url(#paint24_linear_117_20278)"/>
</g>
<g opacity="0.97" filter="url(#filter23_d_117_20278)">
<circle cx="1200.55" cy="950.231" r="3.25" transform="rotate(44 1200.55 950.231)" fill="url(#paint25_linear_117_20278)"/>
</g>
<g opacity="0.81" filter="url(#filter24_d_117_20278)">
<circle cx="1741.33" cy="1045.05" r="4.9" transform="rotate(-153 1741.33 1045.05)" fill="url(#paint26_linear_117_20278)"/>
</g>
</g>
<defs>
<filter id="filter0_d_117_20278" x="82.245" y="86.3176" width="19.8002" height="19.8003" filterUnits="userSpaceOnUse" color-interpolation-filters="sRGB">
<feFlood flood-opacity="0" result="BackgroundImageFix"/>
<feColorMatrix in="SourceAlpha" type="matrix" values="0 0 0 0 0 0 0 0 0 0 0 0 0 0 0 0 0 0 127 0" result="hardAlpha"/>
<feOffset dy="2"/>
<feGaussianBlur stdDeviation="2"/>
<feComposite in2="hardAlpha" operator="out"/>
<feColorMatrix type="matrix" values="0 0 0 0 0 0 0 0 0 0.744333 0 0 0 0 0.845833 0 0 0 0.2 0"/>
<feBlend mode="normal" in2="BackgroundImageFix" result="effect1_dropShadow_117_20278"/>
<feBlend mode="normal" in="SourceGraphic" in2="effect1_dropShadow_117_20278" result="shape"/>
</filter>
<filter id="filter1_d_117_20278" x="466.299" y="80.0161" width="16.402" height="16.4021" filterUnits="userSpaceOnUse" color-interpolation-filters="sRGB">
<feFlood flood-opacity="0" result="BackgroundImageFix"/>
<feColorMatrix in="SourceAlpha" type="matrix" values="0 0 0 0 0 0 0 0 0 0 0 0 0 0 0 0 0 0 127 0" result="hardAlpha"/>
<feOffset dy="2"/>
<feGaussianBlur stdDeviation="2"/>
<feComposite in2="hardAlpha" operator="out"/>
<feColorMatrix type="matrix" values="0 0 0 0 0 0 0 0 0 0.744333 0 0 0 0 0.845833 0 0 0 0.2 0"/>
<feBlend mode="normal" in2="BackgroundImageFix" result="effect1_dropShadow_117_20278"/>
<feBlend mode="normal" in="SourceGraphic" in2="effect1_dropShadow_117_20278" result="shape"/>
</filter>
<filter id="filter2_d_117_20278" x="1086.62" y="0.943481" width="16.9021" height="16.902" filterUnits="userSpaceOnUse" color-interpolation-filters="sRGB">
<feFlood flood-opacity="0" result="BackgroundImageFix"/>
<feColorMatrix in="SourceAlpha" type="matrix" values="0 0 0 0 0 0 0 0 0 0 0 0 0 0 0 0 0 0 127 0" result="hardAlpha"/>
<feOffset dy="2"/>
<feGaussianBlur stdDeviation="2"/>
<feComposite in2="hardAlpha" operator="out"/>
<feColorMatrix type="matrix" values="0 0 0 0 0 0 0 0 0 0.744333 0 0 0 0 0.845833 0 0 0 0.2 0"/>
<feBlend mode="normal" in2="BackgroundImageFix" result="effect1_dropShadow_117_20278"/>
<feBlend mode="normal" in="SourceGraphic" in2="effect1_dropShadow_117_20278" result="shape"/>
</filter>
<filter id="filter3_d_117_20278" x="1373.24" y="6.15662" width="14.5016" height="14.5016" filterUnits="userSpaceOnUse" color-interpolation-filters="sRGB">
<feFlood flood-opacity="0" result="BackgroundImageFix"/>
<feColorMatrix in="SourceAlpha" type="matrix" values="0 0 0 0 0 0 0 0 0 0 0 0 0 0 0 0 0 0 127 0" result="hardAlpha"/>
<feOffset dy="2"/>
<feGaussianBlur stdDeviation="2"/>
<feComposite in2="hardAlpha" operator="out"/>
<feColorMatrix type="matrix" values="0 0 0 0 0 0 0 0 0 0.744333 0 0 0 0 0.845833 0 0 0 0.2 0"/>
<feBlend mode="normal" in2="BackgroundImageFix" result="effect1_dropShadow_117_20278"/>
<feBlend mode="normal" in="SourceGraphic" in2="effect1_dropShadow_117_20278" result="shape"/>
</filter>
<filter id="filter4_d_117_20278" x="1706.43" y="16.7935" width="17.2002" height="17.2002" filterUnits="userSpaceOnUse" color-interpolation-filters="sRGB">
<feFlood flood-opacity="0" result="BackgroundImageFix"/>
<feColorMatrix in="SourceAlpha" type="matrix" values="0 0 0 0 0 0 0 0 0 0 0 0 0 0 0 0 0 0 127 0" result="hardAlpha"/>
<feOffset dy="2"/>
<feGaussianBlur stdDeviation="2"/>
<feComposite in2="hardAlpha" operator="out"/>
<feColorMatrix type="matrix" values="0 0 0 0 0 0 0 0 0 0.744333 0 0 0 0 0.845833 0 0 0 0.2 0"/>
<feBlend mode="normal" in2="BackgroundImageFix" result="effect1_dropShadow_117_20278"/>
<feBlend mode="normal" in="SourceGraphic" in2="effect1_dropShadow_117_20278" result="shape"/>
</filter>
<filter id="filter5_d_117_20278" x="240.697" y="209.351" width="14.5009" height="14.501" filterUnits="userSpaceOnUse" color-interpolation-filters="sRGB">
<feFlood flood-opacity="0" result="BackgroundImageFix"/>
<feColorMatrix in="SourceAlpha" type="matrix" values="0 0 0 0 0 0 0 0 0 0 0 0 0 0 0 0 0 0 127 0" result="hardAlpha"/>
<feOffset dy="2"/>
<feGaussianBlur stdDeviation="2"/>
<feComposite in2="hardAlpha" operator="out"/>
<feColorMatrix type="matrix" values="0 0 0 0 0 0 0 0 0 0.744333 0 0 0 0 0.845833 0 0 0 0.2 0"/>
<feBlend mode="normal" in2="BackgroundImageFix" result="effect1_dropShadow_117_20278"/>
<feBlend mode="normal" in="SourceGraphic" in2="effect1_dropShadow_117_20278" result="shape"/>
</filter>
<filter id="filter6_d_117_20278" x="567.175" y="250.521" width="17.9021" height="17.9021" filterUnits="userSpaceOnUse" color-interpolation-filters="sRGB">
<feFlood flood-opacity="0" result="BackgroundImageFix"/>
<feColorMatrix in="SourceAlpha" type="matrix" values="0 0 0 0 0 0 0 0 0 0 0 0 0 0 0 0 0 0 127 0" result="hardAlpha"/>
<feOffset dy="2"/>
<feGaussianBlur stdDeviation="2"/>
<feComposite in2="hardAlpha" operator="out"/>
<feColorMatrix type="matrix" values="0 0 0 0 0 0 0 0 0 0.744333 0 0 0 0 0.845833 0 0 0 0.2 0"/>
<feBlend mode="normal" in2="BackgroundImageFix" result="effect1_dropShadow_117_20278"/>
<feBlend mode="normal" in="SourceGraphic" in2="effect1_dropShadow_117_20278" result="shape"/>
</filter>
<filter id="filter7_d_117_20278" x="1241.89" y="391.477" width="16.8004" height="16.8003" filterUnits="userSpaceOnUse" color-interpolation-filters="sRGB">
<feFlood flood-opacity="0" result="BackgroundImageFix"/>
<feColorMatrix in="SourceAlpha" type="matrix" values="0 0 0 0 0 0 0 0 0 0 0 0 0 0 0 0 0 0 127 0" result="hardAlpha"/>
<feOffset dy="2"/>
<feGaussianBlur stdDeviation="2"/>
<feComposite in2="hardAlpha" operator="out"/>
<feColorMatrix type="matrix" values="0 0 0 0 0 0 0 0 0 0.744333 0 0 0 0 0.845833 0 0 0 0.2 0"/>
<feBlend mode="normal" in2="BackgroundImageFix" result="effect1_dropShadow_117_20278"/>
<feBlend mode="normal" in="SourceGraphic" in2="effect1_dropShadow_117_20278" result="shape"/>
</filter>
<filter id="filter8_d_117_20278" x="1160.48" y="259.694" width="15.501" height="15.501" filterUnits="userSpaceOnUse" color-interpolation-filters="sRGB">
<feFlood flood-opacity="0" result="BackgroundImageFix"/>
<feColorMatrix in="SourceAlpha" type="matrix" values="0 0 0 0 0 0 0 0 0 0 0 0 0 0 0 0 0 0 127 0" result="hardAlpha"/>
<feOffset dy="2"/>
<feGaussianBlur stdDeviation="2"/>
<feComposite in2="hardAlpha" operator="out"/>
<feColorMatrix type="matrix" values="0 0 0 0 0 0 0 0 0 0.744333 0 0 0 0 0.845833 0 0 0 0.2 0"/>
<feBlend mode="normal" in2="BackgroundImageFix" result="effect1_dropShadow_117_20278"/>
<feBlend mode="normal" in="SourceGraphic" in2="effect1_dropShadow_117_20278" result="shape"/>
</filter>
<filter id="filter9_d_117_20278" x="1877.17" y="205.778" width="18.7007" height="18.7007" filterUnits="userSpaceOnUse" color-interpolation-filters="sRGB">
<feFlood flood-opacity="0" result="BackgroundImageFix"/>
<feColorMatrix in="SourceAlpha" type="matrix" values="0 0 0 0 0 0 0 0 0 0 0 0 0 0 0 0 0 0 127 0" result="hardAlpha"/>
<feOffset dy="2"/>
<feGaussianBlur stdDeviation="2"/>
<feComposite in2="hardAlpha" operator="out"/>
<feColorMatrix type="matrix" values="0 0 0 0 0 0 0 0 0 0.744333 0 0 0 0 0.845833 0 0 0 0.2 0"/>
<feBlend mode="normal" in2="BackgroundImageFix" result="effect1_dropShadow_117_20278"/>
<feBlend mode="normal" in="SourceGraphic" in2="effect1_dropShadow_117_20278" result="shape"/>
</filter>
<filter id="filter10_d_117_20278" x="78.856" y="459.562" width="15.3013" height="15.3013" filterUnits="userSpaceOnUse" color-interpolation-filters="sRGB">
<feFlood flood-opacity="0" result="BackgroundImageFix"/>
<feColorMatrix in="SourceAlpha" type="matrix" values="0 0 0 0 0 0 0 0 0 0 0 0 0 0 0 0 0 0 127 0" result="hardAlpha"/>
<feOffset dy="2"/>
<feGaussianBlur stdDeviation="2"/>
<feComposite in2="hardAlpha" operator="out"/>
<feColorMatrix type="matrix" values="0 0 0 0 0 0 0 0 0 0.744333 0 0 0 0 0.845833 0 0 0 0.2 0"/>
<feBlend mode="normal" in2="BackgroundImageFix" result="effect1_dropShadow_117_20278"/>
<feBlend mode="normal" in="SourceGraphic" in2="effect1_dropShadow_117_20278" result="shape"/>
</filter>
<filter id="filter11_d_117_20278" x="515.1" y="611.627" width="19.9024" height="19.9026" filterUnits="userSpaceOnUse" color-interpolation-filters="sRGB">
<feFlood flood-opacity="0" result="BackgroundImageFix"/>
<feColorMatrix in="SourceAlpha" type="matrix" values="0 0 0 0 0 0 0 0 0 0 0 0 0 0 0 0 0 0 127 0" result="hardAlpha"/>
<feOffset dy="2"/>
<feGaussianBlur stdDeviation="2"/>
<feComposite in2="hardAlpha" operator="out"/>
<feColorMatrix type="matrix" values="0 0 0 0 0 0 0 0 0 0.744333 0 0 0 0 0.845833 0 0 0 0.2 0"/>
<feBlend mode="normal" in2="BackgroundImageFix" result="effect1_dropShadow_117_20278"/>
<feBlend mode="normal" in="SourceGraphic" in2="effect1_dropShadow_117_20278" result="shape"/>
</filter>
<filter id="filter12_d_117_20278" x="850.835" y="464.129" width="18.9005" height="18.9004" filterUnits="userSpaceOnUse" color-interpolation-filters="sRGB">
<feFlood flood-opacity="0" result="BackgroundImageFix"/>
<feColorMatrix in="SourceAlpha" type="matrix" values="0 0 0 0 0 0 0 0 0 0 0 0 0 0 0 0 0 0 127 0" result="hardAlpha"/>
<feOffset dy="2"/>
<feGaussianBlur stdDeviation="2"/>
<feComposite in2="hardAlpha" operator="out"/>
<feColorMatrix type="matrix" values="0 0 0 0 0 0 0 0 0 0.744333 0 0 0 0 0.845833 0 0 0 0.2 0"/>
<feBlend mode="normal" in2="BackgroundImageFix" result="effect1_dropShadow_117_20278"/>
<feBlend mode="normal" in="SourceGraphic" in2="effect1_dropShadow_117_20278" result="shape"/>
</filter>
<filter id="filter13_d_117_20278" x="1363.98" y="544.608" width="16.7001" height="16.7002" filterUnits="userSpaceOnUse" color-interpolation-filters="sRGB">
<feFlood flood-opacity="0" result="BackgroundImageFix"/>
<feColorMatrix in="SourceAlpha" type="matrix" values="0 0 0 0 0 0 0 0 0 0 0 0 0 0 0 0 0 0 127 0" result="hardAlpha"/>
<feOffset dy="2"/>
<feGaussianBlur stdDeviation="2"/>
<feComposite in2="hardAlpha" operator="out"/>
<feColorMatrix type="matrix" values="0 0 0 0 0 0 0 0 0 0.744333 0 0 0 0 0.845833 0 0 0 0.2 0"/>
<feBlend mode="normal" in2="BackgroundImageFix" result="effect1_dropShadow_117_20278"/>
<feBlend mode="normal" in="SourceGraphic" in2="effect1_dropShadow_117_20278" result="shape"/>
</filter>
<filter id="filter14_d_117_20278" x="1821.42" y="542.478" width="16.9" height="16.8999" filterUnits="userSpaceOnUse" color-interpolation-filters="sRGB">
<feFlood flood-opacity="0" result="BackgroundImageFix"/>
<feColorMatrix in="SourceAlpha" type="matrix" values="0 0 0 0 0 0 0 0 0 0 0 0 0 0 0 0 0 0 127 0" result="hardAlpha"/>
<feOffset dy="2"/>
<feGaussianBlur stdDeviation="2"/>
<feComposite in2="hardAlpha" operator="out"/>
<feColorMatrix type="matrix" values="0 0 0 0 0 0 0 0 0 0.744333 0 0 0 0 0.845833 0 0 0 0.2 0"/>
<feBlend mode="normal" in2="BackgroundImageFix" result="effect1_dropShadow_117_20278"/>
<feBlend mode="normal" in="SourceGraphic" in2="effect1_dropShadow_117_20278" result="shape"/>
</filter>
<filter id="filter15_d_117_20278" x="108.582" y="627.66" width="17.1" height="17.1001" filterUnits="userSpaceOnUse" color-interpolation-filters="sRGB">
<feFlood flood-opacity="0" result="BackgroundImageFix"/>
<feColorMatrix in="SourceAlpha" type="matrix" values="0 0 0 0 0 0 0 0 0 0 0 0 0 0 0 0 0 0 127 0" result="hardAlpha"/>
<feOffset dy="2"/>
<feGaussianBlur stdDeviation="2"/>
<feComposite in2="hardAlpha" operator="out"/>
<feColorMatrix type="matrix" values="0 0 0 0 0 0 0 0 0 0.744333 0 0 0 0 0.845833 0 0 0 0.2 0"/>
<feBlend mode="normal" in2="BackgroundImageFix" result="effect1_dropShadow_117_20278"/>
<feBlend mode="normal" in="SourceGraphic" in2="effect1_dropShadow_117_20278" result="shape"/>
</filter>
<filter id="filter16_d_117_20278" x="418.548" y="698.151" width="18.5014" height="18.5015" filterUnits="userSpaceOnUse" color-interpolation-filters="sRGB">
<feFlood flood-opacity="0" result="BackgroundImageFix"/>
<feColorMatrix in="SourceAlpha" type="matrix" values="0 0 0 0 0 0 0 0 0 0 0 0 0 0 0 0 0 0 127 0" result="hardAlpha"/>
<feOffset dy="2"/>
<feGaussianBlur stdDeviation="2"/>
<feComposite in2="hardAlpha" operator="out"/>
<feColorMatrix type="matrix" values="0 0 0 0 0 0 0 0 0 0.744333 0 0 0 0 0.845833 0 0 0 0.2 0"/>
<feBlend mode="normal" in2="BackgroundImageFix" result="effect1_dropShadow_117_20278"/>
<feBlend mode="normal" in="SourceGraphic" in2="effect1_dropShadow_117_20278" result="shape"/>
</filter>
<filter id="filter17_d_117_20278" x="1108.12" y="724.946" width="19.3003" height="19.3003" filterUnits="userSpaceOnUse" color-interpolation-filters="sRGB">
<feFlood flood-opacity="0" result="BackgroundImageFix"/>
<feColorMatrix in="SourceAlpha" type="matrix" values="0 0 0 0 0 0 0 0 0 0 0 0 0 0 0 0 0 0 127 0" result="hardAlpha"/>
<feOffset dy="2"/>
<feGaussianBlur stdDeviation="2"/>
<feComposite in2="hardAlpha" operator="out"/>
<feColorMatrix type="matrix" values="0 0 0 0 0 0 0 0 0 0.744333 0 0 0 0 0.845833 0 0 0 0.2 0"/>
<feBlend mode="normal" in2="BackgroundImageFix" result="effect1_dropShadow_117_20278"/>
<feBlend mode="normal" in="SourceGraphic" in2="effect1_dropShadow_117_20278" result="shape"/>
</filter>
<filter id="filter18_d_117_20278" x="1429.98" y="710.552" width="14.8004" height="14.8003" filterUnits="userSpaceOnUse" color-interpolation-filters="sRGB">
<feFlood flood-opacity="0" result="BackgroundImageFix"/>
<feColorMatrix in="SourceAlpha" type="matrix" values="0 0 0 0 0 0 0 0 0 0 0 0 0 0 0 0 0 0 127 0" result="hardAlpha"/>
<feOffset dy="2"/>
<feGaussianBlur stdDeviation="2"/>
<feComposite in2="hardAlpha" operator="out"/>
<feColorMatrix type="matrix" values="0 0 0 0 0 0 0 0 0 0.744333 0 0 0 0 0.845833 0 0 0 0.2 0"/>
<feBlend mode="normal" in2="BackgroundImageFix" result="effect1_dropShadow_117_20278"/>
<feBlend mode="normal" in="SourceGraphic" in2="effect1_dropShadow_117_20278" result="shape"/>
</filter>
<filter id="filter19_d_117_20278" x="1681.14" y="734.068" width="18.2025" height="18.2026" filterUnits="userSpaceOnUse" color-interpolation-filters="sRGB">
<feFlood flood-opacity="0" result="BackgroundImageFix"/>
<feColorMatrix in="SourceAlpha" type="matrix" values="0 0 0 0 0 0 0 0 0 0 0 0 0 0 0 0 0 0 127 0" result="hardAlpha"/>
<feOffset dy="2"/>
<feGaussianBlur stdDeviation="2"/>
<feComposite in2="hardAlpha" operator="out"/>
<feColorMatrix type="matrix" values="0 0 0 0 0 0 0 0 0 0.744333 0 0 0 0 0.845833 0 0 0 0.2 0"/>
<feBlend mode="normal" in2="BackgroundImageFix" result="effect1_dropShadow_117_20278"/>
<feBlend mode="normal" in="SourceGraphic" in2="effect1_dropShadow_117_20278" result="shape"/>
</filter>
<filter id="filter20_d_117_20278" x="22.4305" y="976.066" width="17.2024" height="17.2024" filterUnits="userSpaceOnUse" color-interpolation-filters="sRGB">
<feFlood flood-opacity="0" result="BackgroundImageFix"/>
<feColorMatrix in="SourceAlpha" type="matrix" values="0 0 0 0 0 0 0 0 0 0 0 0 0 0 0 0 0 0 127 0" result="hardAlpha"/>
<feOffset dy="2"/>
<feGaussianBlur stdDeviation="2"/>
<feComposite in2="hardAlpha" operator="out"/>
<feColorMatrix type="matrix" values="0 0 0 0 0 0 0 0 0 0.744333 0 0 0 0 0.845833 0 0 0 0.2 0"/>
<feBlend mode="normal" in2="BackgroundImageFix" result="effect1_dropShadow_117_20278"/>
<feBlend mode="normal" in="SourceGraphic" in2="effect1_dropShadow_117_20278" result="shape"/>
</filter>
<filter id="filter21_d_117_20278" x="527.214" y="1056.37" width="18.0003" height="18.0002" filterUnits="userSpaceOnUse" color-interpolation-filters="sRGB">
<feFlood flood-opacity="0" result="BackgroundImageFix"/>
<feColorMatrix in="SourceAlpha" type="matrix" values="0 0 0 0 0 0 0 0 0 0 0 0 0 0 0 0 0 0 127 0" result="hardAlpha"/>
<feOffset dy="2"/>
<feGaussianBlur stdDeviation="2"/>
<feComposite in2="hardAlpha" operator="out"/>
<feColorMatrix type="matrix" values="0 0 0 0 0 0 0 0 0 0.744333 0 0 0 0 0.845833 0 0 0 0.2 0"/>
<feBlend mode="normal" in2="BackgroundImageFix" result="effect1_dropShadow_117_20278"/>
<feBlend mode="normal" in="SourceGraphic" in2="effect1_dropShadow_117_20278" result="shape"/>
</filter>
<filter id="filter22_d_117_20278" x="845.851" y="1031.26" width="19.6002" height="19.6003" filterUnits="userSpaceOnUse" color-interpolation-filters="sRGB">
<feFlood flood-opacity="0" result="BackgroundImageFix"/>
<feColorMatrix in="SourceAlpha" type="matrix" values="0 0 0 0 0 0 0 0 0 0 0 0 0 0 0 0 0 0 127 0" result="hardAlpha"/>
<feOffset dy="2"/>
<feGaussianBlur stdDeviation="2"/>
<feComposite in2="hardAlpha" operator="out"/>
<feColorMatrix type="matrix" values="0 0 0 0 0 0 0 0 0 0.744333 0 0 0 0 0.845833 0 0 0 0.2 0"/>
<feBlend mode="normal" in2="BackgroundImageFix" result="effect1_dropShadow_117_20278"/>
<feBlend mode="normal" in="SourceGraphic" in2="effect1_dropShadow_117_20278" result="shape"/>
</filter>
<filter id="filter23_d_117_20278" x="1193.3" y="944.981" width="14.5" height="14.5" filterUnits="userSpaceOnUse" color-interpolation-filters="sRGB">
<feFlood flood-opacity="0" result="BackgroundImageFix"/>
<feColorMatrix in="SourceAlpha" type="matrix" values="0 0 0 0 0 0 0 0 0 0 0 0 0 0 0 0 0 0 127 0" result="hardAlpha"/>
<feOffset dy="2"/>
<feGaussianBlur stdDeviation="2"/>
<feComposite in2="hardAlpha" operator="out"/>
<feColorMatrix type="matrix" values="0 0 0 0 0 0 0 0 0 0.744333 0 0 0 0 0.845833 0 0 0 0.2 0"/>
<feBlend mode="normal" in2="BackgroundImageFix" result="effect1_dropShadow_117_20278"/>
<feBlend mode="normal" in="SourceGraphic" in2="effect1_dropShadow_117_20278" result="shape"/>
</filter>
<filter id="filter24_d_117_20278" x="1732.43" y="1038.14" width="17.8021" height="17.802" filterUnits="userSpaceOnUse" color-interpolation-filters="sRGB">
<feFlood flood-opacity="0" result="BackgroundImageFix"/>
<feColorMatrix in="SourceAlpha" type="matrix" values="0 0 0 0 0 0 0 0 0 0 0 0 0 0 0 0 0 0 127 0" result="hardAlpha"/>
<feOffset dy="2"/>
<feGaussianBlur stdDeviation="2"/>
<feComposite in2="hardAlpha" operator="out"/>
<feColorMatrix type="matrix" values="0 0 0 0 0 0 0 0 0 0.744333 0 0 0 0 0.845833 0 0 0 0.2 0"/>
<feBlend mode="normal" in2="BackgroundImageFix" result="effect1_dropShadow_117_20278"/>
<feBlend mode="normal" in="SourceGraphic" in2="effect1_dropShadow_117_20278" result="shape"/>
</filter>
<radialGradient id="paint0_radial_117_20278" cx="0" cy="0" r="1" gradientUnits="userSpaceOnUse" gradientTransform="translate(2041.38 536.606) rotate(179.483) scale(308.092 393.989)">
<stop offset="0.2129" stop-color="#005E57"/>
<stop offset="0.361" stop-color="#003D38"/>
<stop offset="0.5136" stop-color="#002220"/>
<stop offset="0.6697" stop-color="#000F0E"/>
<stop offset="0.8298" stop-color="#000403"/>
<stop offset="1"/>
</radialGradient>
<radialGradient id="paint1_radial_117_20278" cx="0" cy="0" r="1" gradientUnits="userSpaceOnUse" gradientTransform="translate(-121.384 536.606) rotate(0.516521) scale(308.092 393.989)">
<stop offset="0.2129" stop-color="#005E57"/>
<stop offset="0.361" stop-color="#003D38"/>
<stop offset="0.5136" stop-color="#002220"/>
<stop offset="0.6697" stop-color="#000F0E"/>
<stop offset="0.8298" stop-color="#000403"/>
<stop offset="1"/>
</radialGradient>
<linearGradient id="paint2_linear_117_20278" x1="92.1451" y1="88.3178" x2="92.1451" y2="100.118" gradientUnits="userSpaceOnUse">
<stop stop-color="#00D8A4"/>
<stop offset="1" stop-color="#009470"/>
</linearGradient>
<linearGradient id="paint3_linear_117_20278" x1="474.5" y1="82.0172" x2="474.5" y2="90.4172" gradientUnits="userSpaceOnUse">
<stop stop-color="#00D8A4"/>
<stop offset="1" stop-color="#009470"/>
</linearGradient>
<linearGradient id="paint4_linear_117_20278" x1="1095.07" y1="2.94448" x2="1095.07" y2="11.8445" gradientUnits="userSpaceOnUse">
<stop stop-color="#00D8A4"/>
<stop offset="1" stop-color="#009470"/>
</linearGradient>
<linearGradient id="paint5_linear_117_20278" x1="1380.49" y1="8.15746" x2="1380.49" y2="14.6575" gradientUnits="userSpaceOnUse">
<stop stop-color="#00D8A4"/>
<stop offset="1" stop-color="#009470"/>
</linearGradient>
<linearGradient id="paint6_linear_117_20278" x1="1715.03" y1="18.7935" x2="1715.03" y2="27.9935" gradientUnits="userSpaceOnUse">
<stop stop-color="#00D8A4"/>
<stop offset="1" stop-color="#009470"/>
</linearGradient>
<linearGradient id="paint7_linear_117_20278" x1="247.947" y1="211.352" x2="247.947" y2="217.852" gradientUnits="userSpaceOnUse">
<stop stop-color="#00D8A4"/>
<stop offset="1" stop-color="#009470"/>
</linearGradient>
<linearGradient id="paint8_linear_117_20278" x1="576.126" y1="252.523" x2="576.126" y2="262.423" gradientUnits="userSpaceOnUse">
<stop stop-color="#00D8A4"/>
<stop offset="1" stop-color="#009470"/>
</linearGradient>
<linearGradient id="paint9_linear_117_20278" x1="1250.29" y1="393.477" x2="1250.29" y2="402.277" gradientUnits="userSpaceOnUse">
<stop stop-color="#00D8A4"/>
<stop offset="1" stop-color="#009470"/>
</linearGradient>
<linearGradient id="paint10_linear_117_20278" x1="1168.23" y1="261.694" x2="1168.23" y2="269.194" gradientUnits="userSpaceOnUse">
<stop stop-color="#00D8A4"/>
<stop offset="1" stop-color="#009470"/>
</linearGradient>
<linearGradient id="paint11_linear_117_20278" x1="1886.52" y1="207.778" x2="1886.52" y2="218.478" gradientUnits="userSpaceOnUse">
<stop stop-color="#00D8A4"/>
<stop offset="1" stop-color="#009470"/>
</linearGradient>
<linearGradient id="paint12_linear_117_20278" x1="86.5067" y1="461.563" x2="86.5067" y2="468.863" gradientUnits="userSpaceOnUse">
<stop stop-color="#00D8A4"/>
<stop offset="1" stop-color="#009470"/>
</linearGradient>
<linearGradient id="paint13_linear_117_20278" x1="525.052" y1="613.629" x2="525.052" y2="625.529" gradientUnits="userSpaceOnUse">
<stop stop-color="#00D8A4"/>
<stop offset="1" stop-color="#009470"/>
</linearGradient>
<linearGradient id="paint14_linear_117_20278" x1="860.286" y1="466.129" x2="860.286" y2="477.029" gradientUnits="userSpaceOnUse">
<stop stop-color="#00D8A4"/>
<stop offset="1" stop-color="#009470"/>
</linearGradient>
<linearGradient id="paint15_linear_117_20278" x1="1372.33" y1="546.608" x2="1372.33" y2="555.308" gradientUnits="userSpaceOnUse">
<stop stop-color="#00D8A4"/>
<stop offset="1" stop-color="#009470"/>
</linearGradient>
<linearGradient id="paint16_linear_117_20278" x1="1829.87" y1="544.478" x2="1829.87" y2="553.378" gradientUnits="userSpaceOnUse">
<stop stop-color="#00D8A4"/>
<stop offset="1" stop-color="#009470"/>
</linearGradient>
<linearGradient id="paint17_linear_117_20278" x1="117.132" y1="629.66" x2="117.132" y2="638.76" gradientUnits="userSpaceOnUse">
<stop stop-color="#00D8A4"/>
<stop offset="1" stop-color="#009470"/>
</linearGradient>
<linearGradient id="paint18_linear_117_20278" x1="427.798" y1="700.151" x2="427.798" y2="710.651" gradientUnits="userSpaceOnUse">
<stop stop-color="#00D8A4"/>
<stop offset="1" stop-color="#009470"/>
</linearGradient>
<linearGradient id="paint19_linear_117_20278" x1="1117.77" y1="726.946" x2="1117.77" y2="738.246" gradientUnits="userSpaceOnUse">
<stop stop-color="#00D8A4"/>
<stop offset="1" stop-color="#009470"/>
</linearGradient>
<linearGradient id="paint20_linear_117_20278" x1="1437.38" y1="712.552" x2="1437.38" y2="719.352" gradientUnits="userSpaceOnUse">
<stop stop-color="#00D8A4"/>
<stop offset="1" stop-color="#009470"/>
</linearGradient>
<linearGradient id="paint21_linear_117_20278" x1="1690.25" y1="736.069" x2="1690.25" y2="746.269" gradientUnits="userSpaceOnUse">
<stop stop-color="#00D8A4"/>
<stop offset="1" stop-color="#009470"/>
</linearGradient>
<linearGradient id="paint22_linear_117_20278" x1="31.0317" y1="978.067" x2="31.0317" y2="987.267" gradientUnits="userSpaceOnUse">
<stop stop-color="#00D8A4"/>
<stop offset="1" stop-color="#009470"/>
</linearGradient>
<linearGradient id="paint23_linear_117_20278" x1="536.214" y1="1058.37" x2="536.214" y2="1068.37" gradientUnits="userSpaceOnUse">
<stop stop-color="#00D8A4"/>
<stop offset="1" stop-color="#009470"/>
</linearGradient>
<linearGradient id="paint24_linear_117_20278" x1="855.651" y1="1033.26" x2="855.651" y2="1044.86" gradientUnits="userSpaceOnUse">
<stop stop-color="#00D8A4"/>
<stop offset="1" stop-color="#009470"/>
</linearGradient>
<linearGradient id="paint25_linear_117_20278" x1="1200.55" y1="946.981" x2="1200.55" y2="953.481" gradientUnits="userSpaceOnUse">
<stop stop-color="#00D8A4"/>
<stop offset="1" stop-color="#009470"/>
</linearGradient>
<linearGradient id="paint26_linear_117_20278" x1="1741.33" y1="1040.15" x2="1741.33" y2="1049.95" gradientUnits="userSpaceOnUse">
<stop stop-color="#00D8A4"/>
<stop offset="1" stop-color="#009470"/>
</linearGradient>
<clipPath id="clip0_117_20278">
<rect width="478" height="1047" fill="white" transform="translate(1442 30)"/>
</clipPath>
<clipPath id="clip1_117_20278">
<rect width="478" height="1047" fill="white" transform="matrix(-1 0 0 1 478 30)"/>
</clipPath>
</defs>
</svg>
